M48
; DRILL file {KiCad (5.1.10)-1} date 08/21/21 15:59:31
; FORMAT={-:-/ absolute / inch / decimal}
; #@! TF.CreationDate,2021-08-21T15:59:31-07:00
; #@! TF.GenerationSoftware,Kicad,Pcbnew,(5.1.10)-1
; #@! TF.FileFunction,Plated,1,2,PTH
FMAT,2
INCH
T1C0.0157
T2C0.0362
T3C0.0917
%
G90
G05
T1
X1.94Y-2.975
X1.945Y-2.675
X1.985Y-2.675
X1.99Y-2.975
X2.025Y-2.345
X2.035Y-1.705
X2.035Y-2.675
X2.04Y-2.005
X2.04Y-2.975
X2.065Y-2.375
X2.085Y-2.675
X2.09Y-2.975
X2.13Y-2.675
X2.14Y-2.975
X2.18Y-2.675
X2.19Y-2.975
X2.23Y-2.675
X2.235Y-2.975
X2.28Y-2.675
X2.285Y-2.975
X2.29Y-1.78
X2.335Y-2.975
X2.355Y-1.585
X2.385Y-2.975
X2.395Y-2.675
X2.425Y-2.24
X2.425Y-2.28
X2.43Y-2.2
X2.435Y-2.975
X2.445Y-2.675
X2.47Y-2.2
X2.495Y-2.675
X2.495Y-2.975
X2.51Y-2.2
X2.545Y-2.675
X2.555Y-2.975
X2.59Y-2.675
X2.6Y-2.975
X2.6Y-3.28
X2.615Y-2.065
X2.64Y-2.675
X2.65Y-2.975
X2.69Y-2.675
X2.695Y-2.89
X2.7Y-2.975
X2.74Y-2.675
X2.75Y-2.975
X2.775Y-3.275
X2.79Y-2.675
X2.8Y-2.975
X2.835Y-2.675
X2.85Y-2.975
X2.875Y-2.54
X2.885Y-2.675
X2.895Y-2.975
X2.935Y-2.675
X2.945Y-2.975
X2.985Y-2.675
X2.995Y-2.975
X3.035Y-2.675
X3.04Y-2.895
X3.045Y-2.975
X3.075Y-2.675
X3.095Y-2.975
X3.125Y-2.675
X3.145Y-2.355
X3.155Y-2.975
X3.175Y-2.675
X3.2Y-2.895
X3.215Y-2.975
X3.225Y-2.675
X3.26Y-2.975
X3.275Y-2.675
X3.3Y-3.28
X3.31Y-2.975
X3.315Y-2.675
X3.36Y-2.18
X3.36Y-2.9
X3.36Y-2.975
X3.365Y-2.675
X3.41Y-2.425
X3.41Y-2.975
X3.415Y-2.675
X3.46Y-2.975
X3.465Y-2.675
X3.48Y-3.28
X3.51Y-2.975
X3.515Y-2.675
X3.52Y-2.11
X3.52Y-2.16
X3.52Y-2.21
X3.52Y-2.26
X3.52Y-2.31
X3.52Y-2.355
X3.52Y-2.405
X3.52Y-2.455
X3.52Y-2.505
X3.52Y-2.555
X3.52Y-2.615
X3.525Y-2.065
X3.555Y-2.975
X3.575Y-2.065
X3.605Y-2.975
X3.61Y-2.44
X3.61Y-2.495
X3.615Y-2.395
X3.625Y-2.065
X3.645Y-2.345
X3.655Y-2.975
X3.675Y-2.065
X3.705Y-2.975
X3.725Y-2.065
X3.755Y-2.975
X3.765Y-2.185
X3.775Y-2.065
X3.815Y-2.975
X3.82Y-2.605
X3.825Y-2.065
X3.86Y-2.645
X3.875Y-2.065
X3.875Y-2.975
X3.925Y-1.21
X3.925Y-1.25
X3.925Y-1.3
X3.925Y-1.35
X3.925Y-1.4
X3.925Y-1.45
X3.925Y-1.5
X3.925Y-1.55
X3.925Y-1.6
X3.925Y-1.65
X3.925Y-1.7
X3.925Y-1.745
X3.925Y-1.795
X3.925Y-1.845
X3.925Y-1.895
X3.925Y-1.945
X3.925Y-2.005
X3.925Y-2.065
X3.94Y-2.975
X3.945Y-2.605
X3.985Y-1.54
X4.0Y-2.375
X4.01Y-2.565
X4.01Y-2.625
X4.01Y-2.685
X4.01Y-2.735
X4.01Y-2.785
X4.01Y-2.835
X4.01Y-2.885
X4.01Y-2.93
X4.01Y-2.975
X4.02Y-3.28
X4.05Y-2.375
X4.085Y-2.64
X4.1Y-2.375
X4.135Y-2.0
X4.15Y-2.375
X4.2Y-2.375
X4.2Y-3.28
X4.25Y-2.38
X4.3Y-2.375
X4.32Y-2.5
X4.355Y-2.375
X4.36Y-1.435
X4.41Y-2.205
X4.41Y-2.255
X4.41Y-2.305
X4.41Y-2.355
X4.41Y-2.405
X4.41Y-2.455
X4.41Y-2.5
X4.41Y-2.55
X4.41Y-2.6
X4.41Y-2.65
X4.41Y-2.7
X4.41Y-2.76
X4.41Y-2.82
X4.41Y-2.87
X4.41Y-2.92
X4.41Y-2.97
X4.41Y-3.02
X4.41Y-3.07
X4.41Y-3.12
X4.41Y-3.165
X4.41Y-3.215
X4.41Y-3.265
X4.41Y-3.315
X4.41Y-3.365
X4.41Y-3.42
X4.46Y-2.205
X4.51Y-2.205
X4.56Y-2.205
X4.61Y-2.205
X4.615Y-1.54
X4.615Y-1.62
X4.66Y-2.205
T2
X2.98Y-1.7613
X2.98Y-1.84
X3.0784Y-1.7613
X3.0784Y-1.84
T3
X2.7922Y-1.6546
X3.2662Y-1.6546
T0
M30
