%TF.GenerationSoftware,KiCad,Pcbnew,(5.1.10)-1*%
%TF.CreationDate,2021-08-21T15:59:26-07:00*%
%TF.ProjectId,upconverter,7570636f-6e76-4657-9274-65722e6b6963,rev?*%
%TF.SameCoordinates,Original*%
%TF.FileFunction,Copper,L2,Bot*%
%TF.FilePolarity,Positive*%
%FSLAX46Y46*%
G04 Gerber Fmt 4.6, Leading zero omitted, Abs format (unit mm)*
G04 Created by KiCad (PCBNEW (5.1.10)-1) date 2021-08-21 15:59:26*
%MOMM*%
%LPD*%
G01*
G04 APERTURE LIST*
%TA.AperFunction,SMDPad,CuDef*%
%ADD10R,4.200000X1.350000*%
%TD*%
%TA.AperFunction,ComponentPad*%
%ADD11R,1.700000X1.700000*%
%TD*%
%TA.AperFunction,ComponentPad*%
%ADD12C,1.700000*%
%TD*%
%TA.AperFunction,ComponentPad*%
%ADD13C,3.500000*%
%TD*%
%TA.AperFunction,ViaPad*%
%ADD14C,0.800000*%
%TD*%
%TA.AperFunction,Conductor*%
%ADD15C,0.254000*%
%TD*%
%TA.AperFunction,Conductor*%
%ADD16C,0.100000*%
%TD*%
G04 APERTURE END LIST*
D10*
%TO.P,J2,2*%
%TO.N,GND*%
X116586000Y-52482000D03*
X116586000Y-46832000D03*
%TD*%
%TO.P,J3,2*%
%TO.N,GND*%
X51308000Y-83597000D03*
X51308000Y-77947000D03*
%TD*%
D11*
%TO.P,J1,1*%
%TO.N,Net-(F1-Pad1)*%
X75692000Y-46736000D03*
D12*
%TO.P,J1,2*%
%TO.N,Net-(J1-Pad2)*%
X78192000Y-46736000D03*
%TO.P,J1,3*%
%TO.N,Net-(J1-Pad3)*%
X78192000Y-44736000D03*
%TO.P,J1,4*%
%TO.N,GND*%
X75692000Y-44736000D03*
D13*
%TO.P,J1,5*%
%TO.N,Net-(J1-Pad5)*%
X70922000Y-42026000D03*
X82962000Y-42026000D03*
%TD*%
D14*
%TO.N,GND*%
X66421000Y-52451000D03*
X59817000Y-40259000D03*
X58166000Y-45212000D03*
X51689000Y-43307000D03*
X51816000Y-50927000D03*
X51435000Y-59563000D03*
X52451000Y-60325000D03*
X61595000Y-57912000D03*
X61595000Y-56896000D03*
X61722000Y-55880000D03*
X62738000Y-55880000D03*
X63754000Y-55880000D03*
X68453000Y-73406000D03*
X77216000Y-73533000D03*
X81280000Y-73533000D03*
X66040000Y-83312000D03*
X70485000Y-83185000D03*
X83820000Y-83312000D03*
X88392000Y-83312000D03*
X106680000Y-83312000D03*
X103759000Y-67056000D03*
X91821000Y-60833000D03*
X92583000Y-59563000D03*
X91694000Y-63373000D03*
X91694000Y-61976000D03*
X97028000Y-66167000D03*
X98044000Y-67183000D03*
X100203000Y-66167000D03*
X109728000Y-63500000D03*
X110744000Y-36449000D03*
X79883000Y-59817000D03*
X101219000Y-39116000D03*
X85344000Y-55372000D03*
X105029000Y-50800000D03*
X73025000Y-64516000D03*
X95631000Y-55499000D03*
X117221000Y-41148000D03*
X117221000Y-39116000D03*
X85344000Y-73660000D03*
X86614000Y-61595000D03*
X99695000Y-33020000D03*
X99695000Y-34290000D03*
X99695000Y-31750000D03*
X99695000Y-35560000D03*
X99695000Y-36830000D03*
X99695000Y-39370000D03*
X99695000Y-38100000D03*
X99695000Y-41910000D03*
X99695000Y-40640000D03*
X99695000Y-43180000D03*
X99695000Y-46863000D03*
X99695000Y-48133000D03*
X99695000Y-49403000D03*
X99695000Y-44323000D03*
X99695000Y-45593000D03*
X95885000Y-52451000D03*
X98425000Y-52451000D03*
X99695000Y-52451000D03*
X94615000Y-52451000D03*
X97155000Y-52451000D03*
X99695000Y-50927000D03*
X89535000Y-52451000D03*
X93345000Y-52451000D03*
X92075000Y-52451000D03*
X90805000Y-52451000D03*
X89408000Y-53594000D03*
X89408000Y-54864000D03*
X89408000Y-57404000D03*
X89408000Y-58674000D03*
X89408000Y-56134000D03*
X89408000Y-61087000D03*
X89408000Y-64897000D03*
X89408000Y-59817000D03*
X89408000Y-63627000D03*
X89408000Y-62357000D03*
X88011000Y-67945000D03*
X85471000Y-67945000D03*
X89281000Y-67945000D03*
X84201000Y-67945000D03*
X86741000Y-67945000D03*
X79375000Y-67945000D03*
X83185000Y-67945000D03*
X78105000Y-67945000D03*
X81915000Y-67945000D03*
X80645000Y-67945000D03*
X72009000Y-67945000D03*
X75819000Y-67945000D03*
X73279000Y-67945000D03*
X77089000Y-67945000D03*
X74549000Y-67945000D03*
X68326000Y-67945000D03*
X70866000Y-67945000D03*
X69596000Y-67945000D03*
X67056000Y-67945000D03*
X65786000Y-67945000D03*
X60833000Y-67945000D03*
X64643000Y-67945000D03*
X63373000Y-67945000D03*
X62103000Y-67945000D03*
X56642000Y-67945000D03*
X55372000Y-67945000D03*
X54102000Y-67945000D03*
X57912000Y-67945000D03*
X52959000Y-67945000D03*
X51689000Y-67945000D03*
X50419000Y-67945000D03*
X49403000Y-67945000D03*
X89408000Y-66421000D03*
X99695000Y-30734000D03*
X112014000Y-64770000D03*
X112014000Y-59817000D03*
X112014000Y-61087000D03*
X112014000Y-62357000D03*
X112014000Y-70104000D03*
X112014000Y-57277000D03*
X112014000Y-58547000D03*
X112014000Y-67310000D03*
X112014000Y-68580000D03*
X112014000Y-63500000D03*
X112014000Y-71628000D03*
X112014000Y-56007000D03*
X112014000Y-66040000D03*
X112014000Y-80391000D03*
X112014000Y-79248000D03*
X112014000Y-82931000D03*
X112014000Y-74168000D03*
X112014000Y-81661000D03*
X112014000Y-76708000D03*
X112014000Y-85471000D03*
X112014000Y-84201000D03*
X112014000Y-72898000D03*
X112014000Y-77978000D03*
X112014000Y-86868000D03*
X112014000Y-75438000D03*
X50546000Y-75565000D03*
X56769000Y-75565000D03*
X53086000Y-75565000D03*
X58039000Y-75565000D03*
X60579000Y-75565000D03*
X61849000Y-75565000D03*
X64897000Y-75565000D03*
X49276000Y-75565000D03*
X59309000Y-75565000D03*
X54356000Y-75565000D03*
X63373000Y-75565000D03*
X51816000Y-75565000D03*
X55626000Y-75565000D03*
X81661000Y-75565000D03*
X72390000Y-75565000D03*
X71120000Y-75565000D03*
X67310000Y-75565000D03*
X73533000Y-75565000D03*
X66040000Y-75565000D03*
X68580000Y-75565000D03*
X74803000Y-75565000D03*
X76073000Y-75565000D03*
X80137000Y-75565000D03*
X69850000Y-75565000D03*
X77343000Y-75565000D03*
X78613000Y-75565000D03*
X86614000Y-75565000D03*
X98425000Y-75565000D03*
X87884000Y-75565000D03*
X85344000Y-75565000D03*
X92837000Y-75565000D03*
X95377000Y-75565000D03*
X84074000Y-75565000D03*
X91567000Y-75565000D03*
X96901000Y-75565000D03*
X89154000Y-75565000D03*
X90297000Y-75565000D03*
X82804000Y-75565000D03*
X94107000Y-75565000D03*
X100076000Y-75565000D03*
X101854000Y-72009000D03*
X101854000Y-66675000D03*
X102108000Y-83312000D03*
X101854000Y-68199000D03*
X101854000Y-75565000D03*
X101854000Y-70739000D03*
X101854000Y-74422000D03*
X101854000Y-69469000D03*
X101854000Y-65151000D03*
X101854000Y-73279000D03*
X102870000Y-60325000D03*
X105410000Y-60325000D03*
X101600000Y-60325000D03*
X106680000Y-60325000D03*
X104140000Y-60325000D03*
X113284000Y-56007000D03*
X115824000Y-56007000D03*
X114554000Y-56007000D03*
X118364000Y-56007000D03*
X117094000Y-56007000D03*
X109220000Y-60325000D03*
X107950000Y-60452000D03*
X110617000Y-60325000D03*
%TD*%
D15*
%TO.N,GND*%
X118720000Y-45522277D02*
X118686000Y-45518928D01*
X116871750Y-45522000D01*
X116713000Y-45680750D01*
X116713000Y-46705000D01*
X116733000Y-46705000D01*
X116733000Y-46959000D01*
X116713000Y-46959000D01*
X116713000Y-47983250D01*
X116871750Y-48142000D01*
X118686000Y-48145072D01*
X118720000Y-48141723D01*
X118720000Y-51172277D01*
X118686000Y-51168928D01*
X116871750Y-51172000D01*
X116713000Y-51330750D01*
X116713000Y-52355000D01*
X116733000Y-52355000D01*
X116733000Y-52609000D01*
X116713000Y-52609000D01*
X116713000Y-53633250D01*
X116871750Y-53792000D01*
X118686000Y-53795072D01*
X118720000Y-53791723D01*
X118720001Y-86716000D01*
X49428000Y-86716000D01*
X49428000Y-84909699D01*
X51022250Y-84907000D01*
X51181000Y-84748250D01*
X51181000Y-83724000D01*
X51435000Y-83724000D01*
X51435000Y-84748250D01*
X51593750Y-84907000D01*
X53408000Y-84910072D01*
X53532482Y-84897812D01*
X53652180Y-84861502D01*
X53762494Y-84802537D01*
X53859185Y-84723185D01*
X53938537Y-84626494D01*
X53997502Y-84516180D01*
X54033812Y-84396482D01*
X54046072Y-84272000D01*
X54043000Y-83882750D01*
X53884250Y-83724000D01*
X51435000Y-83724000D01*
X51181000Y-83724000D01*
X51161000Y-83724000D01*
X51161000Y-83470000D01*
X51181000Y-83470000D01*
X51181000Y-82445750D01*
X51435000Y-82445750D01*
X51435000Y-83470000D01*
X53884250Y-83470000D01*
X54043000Y-83311250D01*
X54046072Y-82922000D01*
X54033812Y-82797518D01*
X53997502Y-82677820D01*
X53938537Y-82567506D01*
X53859185Y-82470815D01*
X53762494Y-82391463D01*
X53652180Y-82332498D01*
X53532482Y-82296188D01*
X53408000Y-82283928D01*
X51593750Y-82287000D01*
X51435000Y-82445750D01*
X51181000Y-82445750D01*
X51022250Y-82287000D01*
X49428000Y-82284301D01*
X49428000Y-79259699D01*
X51022250Y-79257000D01*
X51181000Y-79098250D01*
X51181000Y-78074000D01*
X51435000Y-78074000D01*
X51435000Y-79098250D01*
X51593750Y-79257000D01*
X53408000Y-79260072D01*
X53532482Y-79247812D01*
X53652180Y-79211502D01*
X53762494Y-79152537D01*
X53859185Y-79073185D01*
X53938537Y-78976494D01*
X53997502Y-78866180D01*
X54033812Y-78746482D01*
X54046072Y-78622000D01*
X54043000Y-78232750D01*
X53884250Y-78074000D01*
X51435000Y-78074000D01*
X51181000Y-78074000D01*
X51161000Y-78074000D01*
X51161000Y-77820000D01*
X51181000Y-77820000D01*
X51181000Y-76795750D01*
X51435000Y-76795750D01*
X51435000Y-77820000D01*
X53884250Y-77820000D01*
X54043000Y-77661250D01*
X54046072Y-77272000D01*
X54033812Y-77147518D01*
X53997502Y-77027820D01*
X53938537Y-76917506D01*
X53859185Y-76820815D01*
X53762494Y-76741463D01*
X53652180Y-76682498D01*
X53532482Y-76646188D01*
X53408000Y-76633928D01*
X51593750Y-76637000D01*
X51435000Y-76795750D01*
X51181000Y-76795750D01*
X51022250Y-76637000D01*
X49428000Y-76634301D01*
X49428000Y-53157000D01*
X113847928Y-53157000D01*
X113860188Y-53281482D01*
X113896498Y-53401180D01*
X113955463Y-53511494D01*
X114034815Y-53608185D01*
X114131506Y-53687537D01*
X114241820Y-53746502D01*
X114361518Y-53782812D01*
X114486000Y-53795072D01*
X116300250Y-53792000D01*
X116459000Y-53633250D01*
X116459000Y-52609000D01*
X114009750Y-52609000D01*
X113851000Y-52767750D01*
X113847928Y-53157000D01*
X49428000Y-53157000D01*
X49428000Y-51807000D01*
X113847928Y-51807000D01*
X113851000Y-52196250D01*
X114009750Y-52355000D01*
X116459000Y-52355000D01*
X116459000Y-51330750D01*
X116300250Y-51172000D01*
X114486000Y-51168928D01*
X114361518Y-51181188D01*
X114241820Y-51217498D01*
X114131506Y-51276463D01*
X114034815Y-51355815D01*
X113955463Y-51452506D01*
X113896498Y-51562820D01*
X113860188Y-51682518D01*
X113847928Y-51807000D01*
X49428000Y-51807000D01*
X49428000Y-44804531D01*
X74201389Y-44804531D01*
X74243401Y-45094019D01*
X74341081Y-45369747D01*
X74381759Y-45445850D01*
X74311463Y-45531506D01*
X74252498Y-45641820D01*
X74216188Y-45761518D01*
X74203928Y-45886000D01*
X74203928Y-47586000D01*
X74216188Y-47710482D01*
X74252498Y-47830180D01*
X74311463Y-47940494D01*
X74390815Y-48037185D01*
X74487506Y-48116537D01*
X74597820Y-48175502D01*
X74717518Y-48211812D01*
X74842000Y-48224072D01*
X76542000Y-48224072D01*
X76666482Y-48211812D01*
X76786180Y-48175502D01*
X76896494Y-48116537D01*
X76993185Y-48037185D01*
X77072537Y-47940494D01*
X77131502Y-47830180D01*
X77144203Y-47788310D01*
X77245368Y-47889475D01*
X77488589Y-48051990D01*
X77758842Y-48163932D01*
X78045740Y-48221000D01*
X78338260Y-48221000D01*
X78625158Y-48163932D01*
X78895411Y-48051990D01*
X79138632Y-47889475D01*
X79345475Y-47682632D01*
X79462828Y-47507000D01*
X113847928Y-47507000D01*
X113860188Y-47631482D01*
X113896498Y-47751180D01*
X113955463Y-47861494D01*
X114034815Y-47958185D01*
X114131506Y-48037537D01*
X114241820Y-48096502D01*
X114361518Y-48132812D01*
X114486000Y-48145072D01*
X116300250Y-48142000D01*
X116459000Y-47983250D01*
X116459000Y-46959000D01*
X114009750Y-46959000D01*
X113851000Y-47117750D01*
X113847928Y-47507000D01*
X79462828Y-47507000D01*
X79507990Y-47439411D01*
X79619932Y-47169158D01*
X79677000Y-46882260D01*
X79677000Y-46589740D01*
X79619932Y-46302842D01*
X79559523Y-46157000D01*
X113847928Y-46157000D01*
X113851000Y-46546250D01*
X114009750Y-46705000D01*
X116459000Y-46705000D01*
X116459000Y-45680750D01*
X116300250Y-45522000D01*
X114486000Y-45518928D01*
X114361518Y-45531188D01*
X114241820Y-45567498D01*
X114131506Y-45626463D01*
X114034815Y-45705815D01*
X113955463Y-45802506D01*
X113896498Y-45912820D01*
X113860188Y-46032518D01*
X113847928Y-46157000D01*
X79559523Y-46157000D01*
X79507990Y-46032589D01*
X79345475Y-45789368D01*
X79292107Y-45736000D01*
X79345475Y-45682632D01*
X79507990Y-45439411D01*
X79619932Y-45169158D01*
X79677000Y-44882260D01*
X79677000Y-44589740D01*
X79619932Y-44302842D01*
X79507990Y-44032589D01*
X79345475Y-43789368D01*
X79138632Y-43582525D01*
X78895411Y-43420010D01*
X78625158Y-43308068D01*
X78338260Y-43251000D01*
X78045740Y-43251000D01*
X77758842Y-43308068D01*
X77488589Y-43420010D01*
X77245368Y-43582525D01*
X77038525Y-43789368D01*
X76929584Y-43952410D01*
X76720397Y-43887208D01*
X75871605Y-44736000D01*
X75885748Y-44750143D01*
X75706143Y-44929748D01*
X75692000Y-44915605D01*
X75677858Y-44929748D01*
X75498253Y-44750143D01*
X75512395Y-44736000D01*
X74663603Y-43887208D01*
X74414528Y-43964843D01*
X74288629Y-44228883D01*
X74216661Y-44512411D01*
X74201389Y-44804531D01*
X49428000Y-44804531D01*
X49428000Y-41791098D01*
X68537000Y-41791098D01*
X68537000Y-42260902D01*
X68628654Y-42721679D01*
X68808440Y-43155721D01*
X69069450Y-43546349D01*
X69401651Y-43878550D01*
X69792279Y-44139560D01*
X70226321Y-44319346D01*
X70687098Y-44411000D01*
X71156902Y-44411000D01*
X71617679Y-44319346D01*
X72051721Y-44139560D01*
X72442349Y-43878550D01*
X72613296Y-43707603D01*
X74843208Y-43707603D01*
X75692000Y-44556395D01*
X76540792Y-43707603D01*
X76463157Y-43458528D01*
X76199117Y-43332629D01*
X75915589Y-43260661D01*
X75623469Y-43245389D01*
X75333981Y-43287401D01*
X75058253Y-43385081D01*
X74920843Y-43458528D01*
X74843208Y-43707603D01*
X72613296Y-43707603D01*
X72774550Y-43546349D01*
X73035560Y-43155721D01*
X73215346Y-42721679D01*
X73307000Y-42260902D01*
X73307000Y-41791098D01*
X80577000Y-41791098D01*
X80577000Y-42260902D01*
X80668654Y-42721679D01*
X80848440Y-43155721D01*
X81109450Y-43546349D01*
X81441651Y-43878550D01*
X81832279Y-44139560D01*
X82266321Y-44319346D01*
X82727098Y-44411000D01*
X83196902Y-44411000D01*
X83657679Y-44319346D01*
X84091721Y-44139560D01*
X84482349Y-43878550D01*
X84814550Y-43546349D01*
X85075560Y-43155721D01*
X85255346Y-42721679D01*
X85347000Y-42260902D01*
X85347000Y-41791098D01*
X85255346Y-41330321D01*
X85075560Y-40896279D01*
X84814550Y-40505651D01*
X84482349Y-40173450D01*
X84091721Y-39912440D01*
X83657679Y-39732654D01*
X83196902Y-39641000D01*
X82727098Y-39641000D01*
X82266321Y-39732654D01*
X81832279Y-39912440D01*
X81441651Y-40173450D01*
X81109450Y-40505651D01*
X80848440Y-40896279D01*
X80668654Y-41330321D01*
X80577000Y-41791098D01*
X73307000Y-41791098D01*
X73215346Y-41330321D01*
X73035560Y-40896279D01*
X72774550Y-40505651D01*
X72442349Y-40173450D01*
X72051721Y-39912440D01*
X71617679Y-39732654D01*
X71156902Y-39641000D01*
X70687098Y-39641000D01*
X70226321Y-39732654D01*
X69792279Y-39912440D01*
X69401651Y-40173450D01*
X69069450Y-40505651D01*
X68808440Y-40896279D01*
X68628654Y-41330321D01*
X68537000Y-41791098D01*
X49428000Y-41791098D01*
X49428000Y-30632000D01*
X118720000Y-30632000D01*
X118720000Y-45522277D01*
%TA.AperFunction,Conductor*%
D16*
G36*
X118720000Y-45522277D02*
G01*
X118686000Y-45518928D01*
X116871750Y-45522000D01*
X116713000Y-45680750D01*
X116713000Y-46705000D01*
X116733000Y-46705000D01*
X116733000Y-46959000D01*
X116713000Y-46959000D01*
X116713000Y-47983250D01*
X116871750Y-48142000D01*
X118686000Y-48145072D01*
X118720000Y-48141723D01*
X118720000Y-51172277D01*
X118686000Y-51168928D01*
X116871750Y-51172000D01*
X116713000Y-51330750D01*
X116713000Y-52355000D01*
X116733000Y-52355000D01*
X116733000Y-52609000D01*
X116713000Y-52609000D01*
X116713000Y-53633250D01*
X116871750Y-53792000D01*
X118686000Y-53795072D01*
X118720000Y-53791723D01*
X118720001Y-86716000D01*
X49428000Y-86716000D01*
X49428000Y-84909699D01*
X51022250Y-84907000D01*
X51181000Y-84748250D01*
X51181000Y-83724000D01*
X51435000Y-83724000D01*
X51435000Y-84748250D01*
X51593750Y-84907000D01*
X53408000Y-84910072D01*
X53532482Y-84897812D01*
X53652180Y-84861502D01*
X53762494Y-84802537D01*
X53859185Y-84723185D01*
X53938537Y-84626494D01*
X53997502Y-84516180D01*
X54033812Y-84396482D01*
X54046072Y-84272000D01*
X54043000Y-83882750D01*
X53884250Y-83724000D01*
X51435000Y-83724000D01*
X51181000Y-83724000D01*
X51161000Y-83724000D01*
X51161000Y-83470000D01*
X51181000Y-83470000D01*
X51181000Y-82445750D01*
X51435000Y-82445750D01*
X51435000Y-83470000D01*
X53884250Y-83470000D01*
X54043000Y-83311250D01*
X54046072Y-82922000D01*
X54033812Y-82797518D01*
X53997502Y-82677820D01*
X53938537Y-82567506D01*
X53859185Y-82470815D01*
X53762494Y-82391463D01*
X53652180Y-82332498D01*
X53532482Y-82296188D01*
X53408000Y-82283928D01*
X51593750Y-82287000D01*
X51435000Y-82445750D01*
X51181000Y-82445750D01*
X51022250Y-82287000D01*
X49428000Y-82284301D01*
X49428000Y-79259699D01*
X51022250Y-79257000D01*
X51181000Y-79098250D01*
X51181000Y-78074000D01*
X51435000Y-78074000D01*
X51435000Y-79098250D01*
X51593750Y-79257000D01*
X53408000Y-79260072D01*
X53532482Y-79247812D01*
X53652180Y-79211502D01*
X53762494Y-79152537D01*
X53859185Y-79073185D01*
X53938537Y-78976494D01*
X53997502Y-78866180D01*
X54033812Y-78746482D01*
X54046072Y-78622000D01*
X54043000Y-78232750D01*
X53884250Y-78074000D01*
X51435000Y-78074000D01*
X51181000Y-78074000D01*
X51161000Y-78074000D01*
X51161000Y-77820000D01*
X51181000Y-77820000D01*
X51181000Y-76795750D01*
X51435000Y-76795750D01*
X51435000Y-77820000D01*
X53884250Y-77820000D01*
X54043000Y-77661250D01*
X54046072Y-77272000D01*
X54033812Y-77147518D01*
X53997502Y-77027820D01*
X53938537Y-76917506D01*
X53859185Y-76820815D01*
X53762494Y-76741463D01*
X53652180Y-76682498D01*
X53532482Y-76646188D01*
X53408000Y-76633928D01*
X51593750Y-76637000D01*
X51435000Y-76795750D01*
X51181000Y-76795750D01*
X51022250Y-76637000D01*
X49428000Y-76634301D01*
X49428000Y-53157000D01*
X113847928Y-53157000D01*
X113860188Y-53281482D01*
X113896498Y-53401180D01*
X113955463Y-53511494D01*
X114034815Y-53608185D01*
X114131506Y-53687537D01*
X114241820Y-53746502D01*
X114361518Y-53782812D01*
X114486000Y-53795072D01*
X116300250Y-53792000D01*
X116459000Y-53633250D01*
X116459000Y-52609000D01*
X114009750Y-52609000D01*
X113851000Y-52767750D01*
X113847928Y-53157000D01*
X49428000Y-53157000D01*
X49428000Y-51807000D01*
X113847928Y-51807000D01*
X113851000Y-52196250D01*
X114009750Y-52355000D01*
X116459000Y-52355000D01*
X116459000Y-51330750D01*
X116300250Y-51172000D01*
X114486000Y-51168928D01*
X114361518Y-51181188D01*
X114241820Y-51217498D01*
X114131506Y-51276463D01*
X114034815Y-51355815D01*
X113955463Y-51452506D01*
X113896498Y-51562820D01*
X113860188Y-51682518D01*
X113847928Y-51807000D01*
X49428000Y-51807000D01*
X49428000Y-44804531D01*
X74201389Y-44804531D01*
X74243401Y-45094019D01*
X74341081Y-45369747D01*
X74381759Y-45445850D01*
X74311463Y-45531506D01*
X74252498Y-45641820D01*
X74216188Y-45761518D01*
X74203928Y-45886000D01*
X74203928Y-47586000D01*
X74216188Y-47710482D01*
X74252498Y-47830180D01*
X74311463Y-47940494D01*
X74390815Y-48037185D01*
X74487506Y-48116537D01*
X74597820Y-48175502D01*
X74717518Y-48211812D01*
X74842000Y-48224072D01*
X76542000Y-48224072D01*
X76666482Y-48211812D01*
X76786180Y-48175502D01*
X76896494Y-48116537D01*
X76993185Y-48037185D01*
X77072537Y-47940494D01*
X77131502Y-47830180D01*
X77144203Y-47788310D01*
X77245368Y-47889475D01*
X77488589Y-48051990D01*
X77758842Y-48163932D01*
X78045740Y-48221000D01*
X78338260Y-48221000D01*
X78625158Y-48163932D01*
X78895411Y-48051990D01*
X79138632Y-47889475D01*
X79345475Y-47682632D01*
X79462828Y-47507000D01*
X113847928Y-47507000D01*
X113860188Y-47631482D01*
X113896498Y-47751180D01*
X113955463Y-47861494D01*
X114034815Y-47958185D01*
X114131506Y-48037537D01*
X114241820Y-48096502D01*
X114361518Y-48132812D01*
X114486000Y-48145072D01*
X116300250Y-48142000D01*
X116459000Y-47983250D01*
X116459000Y-46959000D01*
X114009750Y-46959000D01*
X113851000Y-47117750D01*
X113847928Y-47507000D01*
X79462828Y-47507000D01*
X79507990Y-47439411D01*
X79619932Y-47169158D01*
X79677000Y-46882260D01*
X79677000Y-46589740D01*
X79619932Y-46302842D01*
X79559523Y-46157000D01*
X113847928Y-46157000D01*
X113851000Y-46546250D01*
X114009750Y-46705000D01*
X116459000Y-46705000D01*
X116459000Y-45680750D01*
X116300250Y-45522000D01*
X114486000Y-45518928D01*
X114361518Y-45531188D01*
X114241820Y-45567498D01*
X114131506Y-45626463D01*
X114034815Y-45705815D01*
X113955463Y-45802506D01*
X113896498Y-45912820D01*
X113860188Y-46032518D01*
X113847928Y-46157000D01*
X79559523Y-46157000D01*
X79507990Y-46032589D01*
X79345475Y-45789368D01*
X79292107Y-45736000D01*
X79345475Y-45682632D01*
X79507990Y-45439411D01*
X79619932Y-45169158D01*
X79677000Y-44882260D01*
X79677000Y-44589740D01*
X79619932Y-44302842D01*
X79507990Y-44032589D01*
X79345475Y-43789368D01*
X79138632Y-43582525D01*
X78895411Y-43420010D01*
X78625158Y-43308068D01*
X78338260Y-43251000D01*
X78045740Y-43251000D01*
X77758842Y-43308068D01*
X77488589Y-43420010D01*
X77245368Y-43582525D01*
X77038525Y-43789368D01*
X76929584Y-43952410D01*
X76720397Y-43887208D01*
X75871605Y-44736000D01*
X75885748Y-44750143D01*
X75706143Y-44929748D01*
X75692000Y-44915605D01*
X75677858Y-44929748D01*
X75498253Y-44750143D01*
X75512395Y-44736000D01*
X74663603Y-43887208D01*
X74414528Y-43964843D01*
X74288629Y-44228883D01*
X74216661Y-44512411D01*
X74201389Y-44804531D01*
X49428000Y-44804531D01*
X49428000Y-41791098D01*
X68537000Y-41791098D01*
X68537000Y-42260902D01*
X68628654Y-42721679D01*
X68808440Y-43155721D01*
X69069450Y-43546349D01*
X69401651Y-43878550D01*
X69792279Y-44139560D01*
X70226321Y-44319346D01*
X70687098Y-44411000D01*
X71156902Y-44411000D01*
X71617679Y-44319346D01*
X72051721Y-44139560D01*
X72442349Y-43878550D01*
X72613296Y-43707603D01*
X74843208Y-43707603D01*
X75692000Y-44556395D01*
X76540792Y-43707603D01*
X76463157Y-43458528D01*
X76199117Y-43332629D01*
X75915589Y-43260661D01*
X75623469Y-43245389D01*
X75333981Y-43287401D01*
X75058253Y-43385081D01*
X74920843Y-43458528D01*
X74843208Y-43707603D01*
X72613296Y-43707603D01*
X72774550Y-43546349D01*
X73035560Y-43155721D01*
X73215346Y-42721679D01*
X73307000Y-42260902D01*
X73307000Y-41791098D01*
X80577000Y-41791098D01*
X80577000Y-42260902D01*
X80668654Y-42721679D01*
X80848440Y-43155721D01*
X81109450Y-43546349D01*
X81441651Y-43878550D01*
X81832279Y-44139560D01*
X82266321Y-44319346D01*
X82727098Y-44411000D01*
X83196902Y-44411000D01*
X83657679Y-44319346D01*
X84091721Y-44139560D01*
X84482349Y-43878550D01*
X84814550Y-43546349D01*
X85075560Y-43155721D01*
X85255346Y-42721679D01*
X85347000Y-42260902D01*
X85347000Y-41791098D01*
X85255346Y-41330321D01*
X85075560Y-40896279D01*
X84814550Y-40505651D01*
X84482349Y-40173450D01*
X84091721Y-39912440D01*
X83657679Y-39732654D01*
X83196902Y-39641000D01*
X82727098Y-39641000D01*
X82266321Y-39732654D01*
X81832279Y-39912440D01*
X81441651Y-40173450D01*
X81109450Y-40505651D01*
X80848440Y-40896279D01*
X80668654Y-41330321D01*
X80577000Y-41791098D01*
X73307000Y-41791098D01*
X73215346Y-41330321D01*
X73035560Y-40896279D01*
X72774550Y-40505651D01*
X72442349Y-40173450D01*
X72051721Y-39912440D01*
X71617679Y-39732654D01*
X71156902Y-39641000D01*
X70687098Y-39641000D01*
X70226321Y-39732654D01*
X69792279Y-39912440D01*
X69401651Y-40173450D01*
X69069450Y-40505651D01*
X68808440Y-40896279D01*
X68628654Y-41330321D01*
X68537000Y-41791098D01*
X49428000Y-41791098D01*
X49428000Y-30632000D01*
X118720000Y-30632000D01*
X118720000Y-45522277D01*
G37*
%TD.AperFunction*%
%TD*%
M02*
