%TF.GenerationSoftware,KiCad,Pcbnew,(5.1.10)-1*%
%TF.CreationDate,2021-08-21T15:59:26-07:00*%
%TF.ProjectId,upconverter,7570636f-6e76-4657-9274-65722e6b6963,rev?*%
%TF.SameCoordinates,Original*%
%TF.FileFunction,Legend,Top*%
%TF.FilePolarity,Positive*%
%FSLAX46Y46*%
G04 Gerber Fmt 4.6, Leading zero omitted, Abs format (unit mm)*
G04 Created by KiCad (PCBNEW (5.1.10)-1) date 2021-08-21 15:59:26*
%MOMM*%
%LPD*%
G01*
G04 APERTURE LIST*
%ADD10C,0.150000*%
%ADD11C,0.120000*%
%ADD12C,0.254000*%
%ADD13C,0.100000*%
G04 APERTURE END LIST*
D10*
X52364380Y-33726380D02*
X52364380Y-32726380D01*
X52364380Y-33202571D02*
X52935809Y-33202571D01*
X52935809Y-33726380D02*
X52935809Y-32726380D01*
X53745333Y-33202571D02*
X53412000Y-33202571D01*
X53412000Y-33726380D02*
X53412000Y-32726380D01*
X53888190Y-32726380D01*
X55031047Y-32726380D02*
X55031047Y-33535904D01*
X55078666Y-33631142D01*
X55126285Y-33678761D01*
X55221523Y-33726380D01*
X55412000Y-33726380D01*
X55507238Y-33678761D01*
X55554857Y-33631142D01*
X55602476Y-33535904D01*
X55602476Y-32726380D01*
X56078666Y-33059714D02*
X56078666Y-34059714D01*
X56078666Y-33107333D02*
X56173904Y-33059714D01*
X56364380Y-33059714D01*
X56459619Y-33107333D01*
X56507238Y-33154952D01*
X56554857Y-33250190D01*
X56554857Y-33535904D01*
X56507238Y-33631142D01*
X56459619Y-33678761D01*
X56364380Y-33726380D01*
X56173904Y-33726380D01*
X56078666Y-33678761D01*
X57412000Y-33678761D02*
X57316761Y-33726380D01*
X57126285Y-33726380D01*
X57031047Y-33678761D01*
X56983428Y-33631142D01*
X56935809Y-33535904D01*
X56935809Y-33250190D01*
X56983428Y-33154952D01*
X57031047Y-33107333D01*
X57126285Y-33059714D01*
X57316761Y-33059714D01*
X57412000Y-33107333D01*
X57983428Y-33726380D02*
X57888190Y-33678761D01*
X57840571Y-33631142D01*
X57792952Y-33535904D01*
X57792952Y-33250190D01*
X57840571Y-33154952D01*
X57888190Y-33107333D01*
X57983428Y-33059714D01*
X58126285Y-33059714D01*
X58221523Y-33107333D01*
X58269142Y-33154952D01*
X58316761Y-33250190D01*
X58316761Y-33535904D01*
X58269142Y-33631142D01*
X58221523Y-33678761D01*
X58126285Y-33726380D01*
X57983428Y-33726380D01*
X58745333Y-33059714D02*
X58745333Y-33726380D01*
X58745333Y-33154952D02*
X58792952Y-33107333D01*
X58888190Y-33059714D01*
X59031047Y-33059714D01*
X59126285Y-33107333D01*
X59173904Y-33202571D01*
X59173904Y-33726380D01*
X59554857Y-33059714D02*
X59792952Y-33726380D01*
X60031047Y-33059714D01*
X60792952Y-33678761D02*
X60697714Y-33726380D01*
X60507238Y-33726380D01*
X60412000Y-33678761D01*
X60364380Y-33583523D01*
X60364380Y-33202571D01*
X60412000Y-33107333D01*
X60507238Y-33059714D01*
X60697714Y-33059714D01*
X60792952Y-33107333D01*
X60840571Y-33202571D01*
X60840571Y-33297809D01*
X60364380Y-33393047D01*
X61269142Y-33726380D02*
X61269142Y-33059714D01*
X61269142Y-33250190D02*
X61316761Y-33154952D01*
X61364380Y-33107333D01*
X61459619Y-33059714D01*
X61554857Y-33059714D01*
X61745333Y-33059714D02*
X62126285Y-33059714D01*
X61888190Y-32726380D02*
X61888190Y-33583523D01*
X61935809Y-33678761D01*
X62031047Y-33726380D01*
X62126285Y-33726380D01*
X62840571Y-33678761D02*
X62745333Y-33726380D01*
X62554857Y-33726380D01*
X62459619Y-33678761D01*
X62412000Y-33583523D01*
X62412000Y-33202571D01*
X62459619Y-33107333D01*
X62554857Y-33059714D01*
X62745333Y-33059714D01*
X62840571Y-33107333D01*
X62888190Y-33202571D01*
X62888190Y-33297809D01*
X62412000Y-33393047D01*
X63316761Y-33726380D02*
X63316761Y-33059714D01*
X63316761Y-33250190D02*
X63364380Y-33154952D01*
X63412000Y-33107333D01*
X63507238Y-33059714D01*
X63602476Y-33059714D01*
D11*
X116967001Y-42291000D02*
G75*
G03*
X116967001Y-42291000I-283981J0D01*
G01*
X51718981Y-57531000D02*
G75*
G03*
X51718981Y-57531000I-283981J0D01*
G01*
X87151981Y-62992000D02*
G75*
G03*
X87151981Y-62992000I-283981J0D01*
G01*
X70514981Y-57277000D02*
G75*
G03*
X70514981Y-57277000I-283981J0D01*
G01*
%TO.C,J2*%
X114876000Y-48817000D02*
X114876000Y-47707000D01*
X114876000Y-51607000D02*
X114876000Y-50497000D01*
X118586000Y-48817000D02*
X118586000Y-47707000D01*
X118586000Y-51607000D02*
X118586000Y-50497000D01*
X114326000Y-49657000D02*
X113826000Y-49407000D01*
X113826000Y-49407000D02*
X113826000Y-49907000D01*
X113826000Y-49907000D02*
X114326000Y-49657000D01*
%TO.C,J3*%
X54068000Y-80522000D02*
X53568000Y-80772000D01*
X54068000Y-81022000D02*
X54068000Y-80522000D01*
X53568000Y-80772000D02*
X54068000Y-81022000D01*
X49308000Y-78822000D02*
X49308000Y-79932000D01*
X49308000Y-81612000D02*
X49308000Y-82722000D01*
X53018000Y-78822000D02*
X53018000Y-79932000D01*
X53018000Y-81612000D02*
X53018000Y-82722000D01*
%TO.C,C20*%
X53982252Y-51662000D02*
X53459748Y-51662000D01*
X53982252Y-50192000D02*
X53459748Y-50192000D01*
%TO.C,C1*%
X109974748Y-43969000D02*
X110497252Y-43969000D01*
X109974748Y-45439000D02*
X110497252Y-45439000D01*
%TO.C,C2*%
X105925252Y-66321000D02*
X105402748Y-66321000D01*
X105925252Y-67791000D02*
X105402748Y-67791000D01*
%TO.C,C3*%
X67156000Y-50223748D02*
X67156000Y-50746252D01*
X65686000Y-50223748D02*
X65686000Y-50746252D01*
%TO.C,C4*%
X113565000Y-34282748D02*
X113565000Y-34805252D01*
X115035000Y-34282748D02*
X115035000Y-34805252D01*
%TO.C,C5*%
X58112252Y-39524000D02*
X57589748Y-39524000D01*
X58112252Y-40994000D02*
X57589748Y-40994000D01*
%TO.C,C6*%
X83512252Y-56107000D02*
X82989748Y-56107000D01*
X83512252Y-54637000D02*
X82989748Y-54637000D01*
%TO.C,C7*%
X111479000Y-34216748D02*
X111479000Y-34739252D01*
X110009000Y-34216748D02*
X110009000Y-34739252D01*
%TO.C,C8*%
X105945000Y-76461252D02*
X105945000Y-75938748D01*
X107415000Y-76461252D02*
X107415000Y-75938748D01*
%TO.C,C9*%
X108431000Y-34739252D02*
X108431000Y-34216748D01*
X106961000Y-34739252D02*
X106961000Y-34216748D01*
%TO.C,C10*%
X77716748Y-60552000D02*
X78239252Y-60552000D01*
X77716748Y-59082000D02*
X78239252Y-59082000D01*
%TO.C,C11*%
X50954000Y-45666252D02*
X50954000Y-45143748D01*
X52424000Y-45666252D02*
X52424000Y-45143748D01*
%TO.C,C12*%
X103385252Y-38381000D02*
X102862748Y-38381000D01*
X103385252Y-39851000D02*
X102862748Y-39851000D01*
%TO.C,C13*%
X101373000Y-81084748D02*
X101373000Y-81607252D01*
X102843000Y-81084748D02*
X102843000Y-81607252D01*
%TO.C,C14*%
X102928748Y-46509000D02*
X103451252Y-46509000D01*
X102928748Y-47979000D02*
X103451252Y-47979000D01*
%TO.C,C15*%
X102862748Y-51535000D02*
X103385252Y-51535000D01*
X102862748Y-50065000D02*
X103385252Y-50065000D01*
%TO.C,C16*%
X106399000Y-54551252D02*
X106399000Y-54028748D01*
X104929000Y-54551252D02*
X104929000Y-54028748D01*
%TO.C,C17*%
X92636748Y-79529000D02*
X93159252Y-79529000D01*
X92636748Y-80999000D02*
X93159252Y-80999000D01*
%TO.C,C18*%
X97797252Y-54637000D02*
X97274748Y-54637000D01*
X97797252Y-56107000D02*
X97274748Y-56107000D01*
%TO.C,C19*%
X72290000Y-62222748D02*
X72290000Y-62745252D01*
X73760000Y-62222748D02*
X73760000Y-62745252D01*
%TO.C,C21*%
X83085000Y-81084748D02*
X83085000Y-81607252D01*
X84555000Y-81084748D02*
X84555000Y-81607252D01*
%TO.C,C22*%
X74988748Y-79529000D02*
X75511252Y-79529000D01*
X74988748Y-80999000D02*
X75511252Y-80999000D01*
%TO.C,C23*%
X66775000Y-81084748D02*
X66775000Y-81607252D01*
X65305000Y-81084748D02*
X65305000Y-81607252D01*
%TO.C,C24*%
X61206748Y-80999000D02*
X61729252Y-80999000D01*
X61206748Y-79529000D02*
X61729252Y-79529000D01*
%TO.C,C25*%
X80545000Y-71366748D02*
X80545000Y-71889252D01*
X82015000Y-71366748D02*
X82015000Y-71889252D01*
%TO.C,C26*%
X89181000Y-71889252D02*
X89181000Y-71366748D01*
X90651000Y-71889252D02*
X90651000Y-71366748D01*
%TO.C,D1*%
X114540000Y-38552000D02*
X116000000Y-38552000D01*
X114540000Y-41712000D02*
X116700000Y-41712000D01*
X114540000Y-41712000D02*
X114540000Y-40782000D01*
X114540000Y-38552000D02*
X114540000Y-39482000D01*
%TO.C,F1*%
X76814000Y-51325545D02*
X76814000Y-52306455D01*
X78634000Y-51325545D02*
X78634000Y-52306455D01*
%TO.C,J1*%
X76192000Y-49056000D02*
X75692000Y-48556000D01*
X75192000Y-49056000D02*
X76192000Y-49056000D01*
X75692000Y-48556000D02*
X75192000Y-49056000D01*
X83102000Y-31616000D02*
X83102000Y-39976000D01*
X70782000Y-31616000D02*
X83102000Y-31616000D01*
X70782000Y-39976000D02*
X70782000Y-31616000D01*
X83102000Y-48336000D02*
X83102000Y-44076000D01*
X70782000Y-48336000D02*
X83102000Y-48336000D01*
X70782000Y-44076000D02*
X70782000Y-48336000D01*
%TO.C,L1*%
X107296378Y-64060000D02*
X108095622Y-64060000D01*
X107296378Y-62940000D02*
X108095622Y-62940000D01*
%TO.C,L2*%
X106120000Y-71519622D02*
X106120000Y-70720378D01*
X107240000Y-71519622D02*
X107240000Y-70720378D01*
%TO.C,L3*%
X103580000Y-34990122D02*
X103580000Y-34190878D01*
X104700000Y-34990122D02*
X104700000Y-34190878D01*
%TO.C,L4*%
X106120000Y-80880378D02*
X106120000Y-81679622D01*
X107240000Y-80880378D02*
X107240000Y-81679622D01*
%TO.C,L5*%
X102677878Y-44248000D02*
X103477122Y-44248000D01*
X102677878Y-43128000D02*
X103477122Y-43128000D01*
%TO.C,L6*%
X97089878Y-79704000D02*
X97889122Y-79704000D01*
X97089878Y-80824000D02*
X97889122Y-80824000D01*
%TO.C,L7*%
X101548000Y-54802122D02*
X101548000Y-54002878D01*
X102668000Y-54802122D02*
X102668000Y-54002878D01*
%TO.C,L8*%
X87832000Y-80880378D02*
X87832000Y-81679622D01*
X88952000Y-80880378D02*
X88952000Y-81679622D01*
%TO.C,L9*%
X79309878Y-80824000D02*
X80109122Y-80824000D01*
X79309878Y-79704000D02*
X80109122Y-79704000D01*
%TO.C,L10*%
X71172000Y-80833878D02*
X71172000Y-81633122D01*
X70052000Y-80833878D02*
X70052000Y-81633122D01*
%TO.C,L11*%
X84784000Y-71228378D02*
X84784000Y-72027622D01*
X85904000Y-71228378D02*
X85904000Y-72027622D01*
%TO.C,L12*%
X94032000Y-71181878D02*
X94032000Y-71981122D01*
X92912000Y-71181878D02*
X92912000Y-71981122D01*
D12*
%TO.C,MX1*%
X93091000Y-67564000D02*
X93091000Y-59436000D01*
X93091000Y-59436000D02*
X98933000Y-59436000D01*
X98933000Y-59436000D02*
X98933000Y-67564000D01*
X98933000Y-67564000D02*
X93091000Y-67564000D01*
D13*
X99927200Y-67564000D02*
G75*
G03*
X99927200Y-67564000I-359200J0D01*
G01*
D11*
%TO.C,R1*%
X88111000Y-45596436D02*
X88111000Y-46050564D01*
X86641000Y-45596436D02*
X86641000Y-46050564D01*
%TO.C,R2*%
X59131564Y-62330000D02*
X58677436Y-62330000D01*
X59131564Y-60860000D02*
X58677436Y-60860000D01*
%TO.C,R3*%
X67845000Y-70996436D02*
X67845000Y-71450564D01*
X69315000Y-70996436D02*
X69315000Y-71450564D01*
%TO.C,R4*%
X73275564Y-69877000D02*
X72821436Y-69877000D01*
X73275564Y-71347000D02*
X72821436Y-71347000D01*
%TO.C,R5*%
X77951000Y-71400936D02*
X77951000Y-71855064D01*
X76481000Y-71400936D02*
X76481000Y-71855064D01*
%TO.C,U1*%
X83555000Y-63205000D02*
X86005000Y-63205000D01*
X85355000Y-59985000D02*
X83555000Y-59985000D01*
%TO.C,U2*%
X56737000Y-43663000D02*
X54937000Y-43663000D01*
X54937000Y-46883000D02*
X57387000Y-46883000D01*
%TO.C,U3*%
X54621000Y-56937000D02*
X52171000Y-56937000D01*
X52821000Y-60157000D02*
X54621000Y-60157000D01*
%TO.C,X1*%
X67353000Y-56795000D02*
X67353000Y-56195000D01*
X64473000Y-56795000D02*
X67353000Y-56795000D01*
X69613000Y-62195000D02*
X69553000Y-62195000D01*
X69613000Y-56795000D02*
X69613000Y-62195000D01*
X69553000Y-56795000D02*
X69613000Y-56795000D01*
X69553000Y-56195000D02*
X69553000Y-56795000D01*
X67353000Y-62195000D02*
X64473000Y-62195000D01*
X62213000Y-56795000D02*
X62273000Y-56795000D01*
X62213000Y-62195000D02*
X62213000Y-56795000D01*
X62273000Y-62195000D02*
X62213000Y-62195000D01*
%TO.C,J2*%
D10*
X112538380Y-49990333D02*
X113252666Y-49990333D01*
X113395523Y-50037952D01*
X113490761Y-50133190D01*
X113538380Y-50276047D01*
X113538380Y-50371285D01*
X112633619Y-49561761D02*
X112586000Y-49514142D01*
X112538380Y-49418904D01*
X112538380Y-49180809D01*
X112586000Y-49085571D01*
X112633619Y-49037952D01*
X112728857Y-48990333D01*
X112824095Y-48990333D01*
X112966952Y-49037952D01*
X113538380Y-49609380D01*
X113538380Y-48990333D01*
%TO.C,J3*%
X54260380Y-81105333D02*
X54974666Y-81105333D01*
X55117523Y-81152952D01*
X55212761Y-81248190D01*
X55260380Y-81391047D01*
X55260380Y-81486285D01*
X54260380Y-80724380D02*
X54260380Y-80105333D01*
X54641333Y-80438666D01*
X54641333Y-80295809D01*
X54688952Y-80200571D01*
X54736571Y-80152952D01*
X54831809Y-80105333D01*
X55069904Y-80105333D01*
X55165142Y-80152952D01*
X55212761Y-80200571D01*
X55260380Y-80295809D01*
X55260380Y-80581523D01*
X55212761Y-80676761D01*
X55165142Y-80724380D01*
%TO.C,C20*%
X52062142Y-53570142D02*
X52014523Y-53617761D01*
X51871666Y-53665380D01*
X51776428Y-53665380D01*
X51633571Y-53617761D01*
X51538333Y-53522523D01*
X51490714Y-53427285D01*
X51443095Y-53236809D01*
X51443095Y-53093952D01*
X51490714Y-52903476D01*
X51538333Y-52808238D01*
X51633571Y-52713000D01*
X51776428Y-52665380D01*
X51871666Y-52665380D01*
X52014523Y-52713000D01*
X52062142Y-52760619D01*
X52443095Y-52760619D02*
X52490714Y-52713000D01*
X52585952Y-52665380D01*
X52824047Y-52665380D01*
X52919285Y-52713000D01*
X52966904Y-52760619D01*
X53014523Y-52855857D01*
X53014523Y-52951095D01*
X52966904Y-53093952D01*
X52395476Y-53665380D01*
X53014523Y-53665380D01*
X53633571Y-52665380D02*
X53728809Y-52665380D01*
X53824047Y-52713000D01*
X53871666Y-52760619D01*
X53919285Y-52855857D01*
X53966904Y-53046333D01*
X53966904Y-53284428D01*
X53919285Y-53474904D01*
X53871666Y-53570142D01*
X53824047Y-53617761D01*
X53728809Y-53665380D01*
X53633571Y-53665380D01*
X53538333Y-53617761D01*
X53490714Y-53570142D01*
X53443095Y-53474904D01*
X53395476Y-53284428D01*
X53395476Y-53046333D01*
X53443095Y-52855857D01*
X53490714Y-52760619D01*
X53538333Y-52713000D01*
X53633571Y-52665380D01*
%TO.C,C1*%
X110069333Y-43381142D02*
X110021714Y-43428761D01*
X109878857Y-43476380D01*
X109783619Y-43476380D01*
X109640761Y-43428761D01*
X109545523Y-43333523D01*
X109497904Y-43238285D01*
X109450285Y-43047809D01*
X109450285Y-42904952D01*
X109497904Y-42714476D01*
X109545523Y-42619238D01*
X109640761Y-42524000D01*
X109783619Y-42476380D01*
X109878857Y-42476380D01*
X110021714Y-42524000D01*
X110069333Y-42571619D01*
X111021714Y-43476380D02*
X110450285Y-43476380D01*
X110736000Y-43476380D02*
X110736000Y-42476380D01*
X110640761Y-42619238D01*
X110545523Y-42714476D01*
X110450285Y-42762095D01*
%TO.C,C2*%
X105497333Y-69093142D02*
X105449714Y-69140761D01*
X105306857Y-69188380D01*
X105211619Y-69188380D01*
X105068761Y-69140761D01*
X104973523Y-69045523D01*
X104925904Y-68950285D01*
X104878285Y-68759809D01*
X104878285Y-68616952D01*
X104925904Y-68426476D01*
X104973523Y-68331238D01*
X105068761Y-68236000D01*
X105211619Y-68188380D01*
X105306857Y-68188380D01*
X105449714Y-68236000D01*
X105497333Y-68283619D01*
X105878285Y-68283619D02*
X105925904Y-68236000D01*
X106021142Y-68188380D01*
X106259238Y-68188380D01*
X106354476Y-68236000D01*
X106402095Y-68283619D01*
X106449714Y-68378857D01*
X106449714Y-68474095D01*
X106402095Y-68616952D01*
X105830666Y-69188380D01*
X106449714Y-69188380D01*
%TO.C,C3*%
X64746142Y-51093666D02*
X64793761Y-51141285D01*
X64841380Y-51284142D01*
X64841380Y-51379380D01*
X64793761Y-51522238D01*
X64698523Y-51617476D01*
X64603285Y-51665095D01*
X64412809Y-51712714D01*
X64269952Y-51712714D01*
X64079476Y-51665095D01*
X63984238Y-51617476D01*
X63889000Y-51522238D01*
X63841380Y-51379380D01*
X63841380Y-51284142D01*
X63889000Y-51141285D01*
X63936619Y-51093666D01*
X63841380Y-50760333D02*
X63841380Y-50141285D01*
X64222333Y-50474619D01*
X64222333Y-50331761D01*
X64269952Y-50236523D01*
X64317571Y-50188904D01*
X64412809Y-50141285D01*
X64650904Y-50141285D01*
X64746142Y-50188904D01*
X64793761Y-50236523D01*
X64841380Y-50331761D01*
X64841380Y-50617476D01*
X64793761Y-50712714D01*
X64746142Y-50760333D01*
%TO.C,C4*%
X116337142Y-34710666D02*
X116384761Y-34758285D01*
X116432380Y-34901142D01*
X116432380Y-34996380D01*
X116384761Y-35139238D01*
X116289523Y-35234476D01*
X116194285Y-35282095D01*
X116003809Y-35329714D01*
X115860952Y-35329714D01*
X115670476Y-35282095D01*
X115575238Y-35234476D01*
X115480000Y-35139238D01*
X115432380Y-34996380D01*
X115432380Y-34901142D01*
X115480000Y-34758285D01*
X115527619Y-34710666D01*
X115765714Y-33853523D02*
X116432380Y-33853523D01*
X115384761Y-34091619D02*
X116099047Y-34329714D01*
X116099047Y-33710666D01*
%TO.C,C5*%
X57684333Y-42296142D02*
X57636714Y-42343761D01*
X57493857Y-42391380D01*
X57398619Y-42391380D01*
X57255761Y-42343761D01*
X57160523Y-42248523D01*
X57112904Y-42153285D01*
X57065285Y-41962809D01*
X57065285Y-41819952D01*
X57112904Y-41629476D01*
X57160523Y-41534238D01*
X57255761Y-41439000D01*
X57398619Y-41391380D01*
X57493857Y-41391380D01*
X57636714Y-41439000D01*
X57684333Y-41486619D01*
X58589095Y-41391380D02*
X58112904Y-41391380D01*
X58065285Y-41867571D01*
X58112904Y-41819952D01*
X58208142Y-41772333D01*
X58446238Y-41772333D01*
X58541476Y-41819952D01*
X58589095Y-41867571D01*
X58636714Y-41962809D01*
X58636714Y-42200904D01*
X58589095Y-42296142D01*
X58541476Y-42343761D01*
X58446238Y-42391380D01*
X58208142Y-42391380D01*
X58112904Y-42343761D01*
X58065285Y-42296142D01*
%TO.C,C6*%
X83084333Y-57409142D02*
X83036714Y-57456761D01*
X82893857Y-57504380D01*
X82798619Y-57504380D01*
X82655761Y-57456761D01*
X82560523Y-57361523D01*
X82512904Y-57266285D01*
X82465285Y-57075809D01*
X82465285Y-56932952D01*
X82512904Y-56742476D01*
X82560523Y-56647238D01*
X82655761Y-56552000D01*
X82798619Y-56504380D01*
X82893857Y-56504380D01*
X83036714Y-56552000D01*
X83084333Y-56599619D01*
X83941476Y-56504380D02*
X83751000Y-56504380D01*
X83655761Y-56552000D01*
X83608142Y-56599619D01*
X83512904Y-56742476D01*
X83465285Y-56932952D01*
X83465285Y-57313904D01*
X83512904Y-57409142D01*
X83560523Y-57456761D01*
X83655761Y-57504380D01*
X83846238Y-57504380D01*
X83941476Y-57456761D01*
X83989095Y-57409142D01*
X84036714Y-57313904D01*
X84036714Y-57075809D01*
X83989095Y-56980571D01*
X83941476Y-56932952D01*
X83846238Y-56885333D01*
X83655761Y-56885333D01*
X83560523Y-56932952D01*
X83512904Y-56980571D01*
X83465285Y-57075809D01*
%TO.C,C7*%
X112781142Y-34644666D02*
X112828761Y-34692285D01*
X112876380Y-34835142D01*
X112876380Y-34930380D01*
X112828761Y-35073238D01*
X112733523Y-35168476D01*
X112638285Y-35216095D01*
X112447809Y-35263714D01*
X112304952Y-35263714D01*
X112114476Y-35216095D01*
X112019238Y-35168476D01*
X111924000Y-35073238D01*
X111876380Y-34930380D01*
X111876380Y-34835142D01*
X111924000Y-34692285D01*
X111971619Y-34644666D01*
X111876380Y-34311333D02*
X111876380Y-33644666D01*
X112876380Y-34073238D01*
%TO.C,C8*%
X105357142Y-76366666D02*
X105404761Y-76414285D01*
X105452380Y-76557142D01*
X105452380Y-76652380D01*
X105404761Y-76795238D01*
X105309523Y-76890476D01*
X105214285Y-76938095D01*
X105023809Y-76985714D01*
X104880952Y-76985714D01*
X104690476Y-76938095D01*
X104595238Y-76890476D01*
X104500000Y-76795238D01*
X104452380Y-76652380D01*
X104452380Y-76557142D01*
X104500000Y-76414285D01*
X104547619Y-76366666D01*
X104880952Y-75795238D02*
X104833333Y-75890476D01*
X104785714Y-75938095D01*
X104690476Y-75985714D01*
X104642857Y-75985714D01*
X104547619Y-75938095D01*
X104500000Y-75890476D01*
X104452380Y-75795238D01*
X104452380Y-75604761D01*
X104500000Y-75509523D01*
X104547619Y-75461904D01*
X104642857Y-75414285D01*
X104690476Y-75414285D01*
X104785714Y-75461904D01*
X104833333Y-75509523D01*
X104880952Y-75604761D01*
X104880952Y-75795238D01*
X104928571Y-75890476D01*
X104976190Y-75938095D01*
X105071428Y-75985714D01*
X105261904Y-75985714D01*
X105357142Y-75938095D01*
X105404761Y-75890476D01*
X105452380Y-75795238D01*
X105452380Y-75604761D01*
X105404761Y-75509523D01*
X105357142Y-75461904D01*
X105261904Y-75414285D01*
X105071428Y-75414285D01*
X104976190Y-75461904D01*
X104928571Y-75509523D01*
X104880952Y-75604761D01*
%TO.C,C9*%
X106373142Y-34644666D02*
X106420761Y-34692285D01*
X106468380Y-34835142D01*
X106468380Y-34930380D01*
X106420761Y-35073238D01*
X106325523Y-35168476D01*
X106230285Y-35216095D01*
X106039809Y-35263714D01*
X105896952Y-35263714D01*
X105706476Y-35216095D01*
X105611238Y-35168476D01*
X105516000Y-35073238D01*
X105468380Y-34930380D01*
X105468380Y-34835142D01*
X105516000Y-34692285D01*
X105563619Y-34644666D01*
X106468380Y-34168476D02*
X106468380Y-33978000D01*
X106420761Y-33882761D01*
X106373142Y-33835142D01*
X106230285Y-33739904D01*
X106039809Y-33692285D01*
X105658857Y-33692285D01*
X105563619Y-33739904D01*
X105516000Y-33787523D01*
X105468380Y-33882761D01*
X105468380Y-34073238D01*
X105516000Y-34168476D01*
X105563619Y-34216095D01*
X105658857Y-34263714D01*
X105896952Y-34263714D01*
X105992190Y-34216095D01*
X106039809Y-34168476D01*
X106087428Y-34073238D01*
X106087428Y-33882761D01*
X106039809Y-33787523D01*
X105992190Y-33739904D01*
X105896952Y-33692285D01*
%TO.C,C10*%
X77335142Y-58494142D02*
X77287523Y-58541761D01*
X77144666Y-58589380D01*
X77049428Y-58589380D01*
X76906571Y-58541761D01*
X76811333Y-58446523D01*
X76763714Y-58351285D01*
X76716095Y-58160809D01*
X76716095Y-58017952D01*
X76763714Y-57827476D01*
X76811333Y-57732238D01*
X76906571Y-57637000D01*
X77049428Y-57589380D01*
X77144666Y-57589380D01*
X77287523Y-57637000D01*
X77335142Y-57684619D01*
X78287523Y-58589380D02*
X77716095Y-58589380D01*
X78001809Y-58589380D02*
X78001809Y-57589380D01*
X77906571Y-57732238D01*
X77811333Y-57827476D01*
X77716095Y-57875095D01*
X78906571Y-57589380D02*
X79001809Y-57589380D01*
X79097047Y-57637000D01*
X79144666Y-57684619D01*
X79192285Y-57779857D01*
X79239904Y-57970333D01*
X79239904Y-58208428D01*
X79192285Y-58398904D01*
X79144666Y-58494142D01*
X79097047Y-58541761D01*
X79001809Y-58589380D01*
X78906571Y-58589380D01*
X78811333Y-58541761D01*
X78763714Y-58494142D01*
X78716095Y-58398904D01*
X78668476Y-58208428D01*
X78668476Y-57970333D01*
X78716095Y-57779857D01*
X78763714Y-57684619D01*
X78811333Y-57637000D01*
X78906571Y-57589380D01*
%TO.C,C11*%
X50366142Y-46616857D02*
X50413761Y-46664476D01*
X50461380Y-46807333D01*
X50461380Y-46902571D01*
X50413761Y-47045428D01*
X50318523Y-47140666D01*
X50223285Y-47188285D01*
X50032809Y-47235904D01*
X49889952Y-47235904D01*
X49699476Y-47188285D01*
X49604238Y-47140666D01*
X49509000Y-47045428D01*
X49461380Y-46902571D01*
X49461380Y-46807333D01*
X49509000Y-46664476D01*
X49556619Y-46616857D01*
X50461380Y-45664476D02*
X50461380Y-46235904D01*
X50461380Y-45950190D02*
X49461380Y-45950190D01*
X49604238Y-46045428D01*
X49699476Y-46140666D01*
X49747095Y-46235904D01*
X50461380Y-44712095D02*
X50461380Y-45283523D01*
X50461380Y-44997809D02*
X49461380Y-44997809D01*
X49604238Y-45093047D01*
X49699476Y-45188285D01*
X49747095Y-45283523D01*
%TO.C,C12*%
X102481142Y-41153142D02*
X102433523Y-41200761D01*
X102290666Y-41248380D01*
X102195428Y-41248380D01*
X102052571Y-41200761D01*
X101957333Y-41105523D01*
X101909714Y-41010285D01*
X101862095Y-40819809D01*
X101862095Y-40676952D01*
X101909714Y-40486476D01*
X101957333Y-40391238D01*
X102052571Y-40296000D01*
X102195428Y-40248380D01*
X102290666Y-40248380D01*
X102433523Y-40296000D01*
X102481142Y-40343619D01*
X103433523Y-41248380D02*
X102862095Y-41248380D01*
X103147809Y-41248380D02*
X103147809Y-40248380D01*
X103052571Y-40391238D01*
X102957333Y-40486476D01*
X102862095Y-40534095D01*
X103814476Y-40343619D02*
X103862095Y-40296000D01*
X103957333Y-40248380D01*
X104195428Y-40248380D01*
X104290666Y-40296000D01*
X104338285Y-40343619D01*
X104385904Y-40438857D01*
X104385904Y-40534095D01*
X104338285Y-40676952D01*
X103766857Y-41248380D01*
X104385904Y-41248380D01*
%TO.C,C13*%
X104243142Y-82811857D02*
X104290761Y-82859476D01*
X104338380Y-83002333D01*
X104338380Y-83097571D01*
X104290761Y-83240428D01*
X104195523Y-83335666D01*
X104100285Y-83383285D01*
X103909809Y-83430904D01*
X103766952Y-83430904D01*
X103576476Y-83383285D01*
X103481238Y-83335666D01*
X103386000Y-83240428D01*
X103338380Y-83097571D01*
X103338380Y-83002333D01*
X103386000Y-82859476D01*
X103433619Y-82811857D01*
X104338380Y-81859476D02*
X104338380Y-82430904D01*
X104338380Y-82145190D02*
X103338380Y-82145190D01*
X103481238Y-82240428D01*
X103576476Y-82335666D01*
X103624095Y-82430904D01*
X103338380Y-81526142D02*
X103338380Y-80907095D01*
X103719333Y-81240428D01*
X103719333Y-81097571D01*
X103766952Y-81002333D01*
X103814571Y-80954714D01*
X103909809Y-80907095D01*
X104147904Y-80907095D01*
X104243142Y-80954714D01*
X104290761Y-81002333D01*
X104338380Y-81097571D01*
X104338380Y-81383285D01*
X104290761Y-81478523D01*
X104243142Y-81526142D01*
%TO.C,C14*%
X102547142Y-45921142D02*
X102499523Y-45968761D01*
X102356666Y-46016380D01*
X102261428Y-46016380D01*
X102118571Y-45968761D01*
X102023333Y-45873523D01*
X101975714Y-45778285D01*
X101928095Y-45587809D01*
X101928095Y-45444952D01*
X101975714Y-45254476D01*
X102023333Y-45159238D01*
X102118571Y-45064000D01*
X102261428Y-45016380D01*
X102356666Y-45016380D01*
X102499523Y-45064000D01*
X102547142Y-45111619D01*
X103499523Y-46016380D02*
X102928095Y-46016380D01*
X103213809Y-46016380D02*
X103213809Y-45016380D01*
X103118571Y-45159238D01*
X103023333Y-45254476D01*
X102928095Y-45302095D01*
X104356666Y-45349714D02*
X104356666Y-46016380D01*
X104118571Y-44968761D02*
X103880476Y-45683047D01*
X104499523Y-45683047D01*
%TO.C,C15*%
X102481142Y-49477142D02*
X102433523Y-49524761D01*
X102290666Y-49572380D01*
X102195428Y-49572380D01*
X102052571Y-49524761D01*
X101957333Y-49429523D01*
X101909714Y-49334285D01*
X101862095Y-49143809D01*
X101862095Y-49000952D01*
X101909714Y-48810476D01*
X101957333Y-48715238D01*
X102052571Y-48620000D01*
X102195428Y-48572380D01*
X102290666Y-48572380D01*
X102433523Y-48620000D01*
X102481142Y-48667619D01*
X103433523Y-49572380D02*
X102862095Y-49572380D01*
X103147809Y-49572380D02*
X103147809Y-48572380D01*
X103052571Y-48715238D01*
X102957333Y-48810476D01*
X102862095Y-48858095D01*
X104338285Y-48572380D02*
X103862095Y-48572380D01*
X103814476Y-49048571D01*
X103862095Y-49000952D01*
X103957333Y-48953333D01*
X104195428Y-48953333D01*
X104290666Y-49000952D01*
X104338285Y-49048571D01*
X104385904Y-49143809D01*
X104385904Y-49381904D01*
X104338285Y-49477142D01*
X104290666Y-49524761D01*
X104195428Y-49572380D01*
X103957333Y-49572380D01*
X103862095Y-49524761D01*
X103814476Y-49477142D01*
%TO.C,C16*%
X104341142Y-54932857D02*
X104388761Y-54980476D01*
X104436380Y-55123333D01*
X104436380Y-55218571D01*
X104388761Y-55361428D01*
X104293523Y-55456666D01*
X104198285Y-55504285D01*
X104007809Y-55551904D01*
X103864952Y-55551904D01*
X103674476Y-55504285D01*
X103579238Y-55456666D01*
X103484000Y-55361428D01*
X103436380Y-55218571D01*
X103436380Y-55123333D01*
X103484000Y-54980476D01*
X103531619Y-54932857D01*
X104436380Y-53980476D02*
X104436380Y-54551904D01*
X104436380Y-54266190D02*
X103436380Y-54266190D01*
X103579238Y-54361428D01*
X103674476Y-54456666D01*
X103722095Y-54551904D01*
X103436380Y-53123333D02*
X103436380Y-53313809D01*
X103484000Y-53409047D01*
X103531619Y-53456666D01*
X103674476Y-53551904D01*
X103864952Y-53599523D01*
X104245904Y-53599523D01*
X104341142Y-53551904D01*
X104388761Y-53504285D01*
X104436380Y-53409047D01*
X104436380Y-53218571D01*
X104388761Y-53123333D01*
X104341142Y-53075714D01*
X104245904Y-53028095D01*
X104007809Y-53028095D01*
X103912571Y-53075714D01*
X103864952Y-53123333D01*
X103817333Y-53218571D01*
X103817333Y-53409047D01*
X103864952Y-53504285D01*
X103912571Y-53551904D01*
X104007809Y-53599523D01*
%TO.C,C17*%
X92255142Y-78941142D02*
X92207523Y-78988761D01*
X92064666Y-79036380D01*
X91969428Y-79036380D01*
X91826571Y-78988761D01*
X91731333Y-78893523D01*
X91683714Y-78798285D01*
X91636095Y-78607809D01*
X91636095Y-78464952D01*
X91683714Y-78274476D01*
X91731333Y-78179238D01*
X91826571Y-78084000D01*
X91969428Y-78036380D01*
X92064666Y-78036380D01*
X92207523Y-78084000D01*
X92255142Y-78131619D01*
X93207523Y-79036380D02*
X92636095Y-79036380D01*
X92921809Y-79036380D02*
X92921809Y-78036380D01*
X92826571Y-78179238D01*
X92731333Y-78274476D01*
X92636095Y-78322095D01*
X93540857Y-78036380D02*
X94207523Y-78036380D01*
X93778952Y-79036380D01*
%TO.C,C18*%
X96893142Y-57409142D02*
X96845523Y-57456761D01*
X96702666Y-57504380D01*
X96607428Y-57504380D01*
X96464571Y-57456761D01*
X96369333Y-57361523D01*
X96321714Y-57266285D01*
X96274095Y-57075809D01*
X96274095Y-56932952D01*
X96321714Y-56742476D01*
X96369333Y-56647238D01*
X96464571Y-56552000D01*
X96607428Y-56504380D01*
X96702666Y-56504380D01*
X96845523Y-56552000D01*
X96893142Y-56599619D01*
X97845523Y-57504380D02*
X97274095Y-57504380D01*
X97559809Y-57504380D02*
X97559809Y-56504380D01*
X97464571Y-56647238D01*
X97369333Y-56742476D01*
X97274095Y-56790095D01*
X98416952Y-56932952D02*
X98321714Y-56885333D01*
X98274095Y-56837714D01*
X98226476Y-56742476D01*
X98226476Y-56694857D01*
X98274095Y-56599619D01*
X98321714Y-56552000D01*
X98416952Y-56504380D01*
X98607428Y-56504380D01*
X98702666Y-56552000D01*
X98750285Y-56599619D01*
X98797904Y-56694857D01*
X98797904Y-56742476D01*
X98750285Y-56837714D01*
X98702666Y-56885333D01*
X98607428Y-56932952D01*
X98416952Y-56932952D01*
X98321714Y-56980571D01*
X98274095Y-57028190D01*
X98226476Y-57123428D01*
X98226476Y-57313904D01*
X98274095Y-57409142D01*
X98321714Y-57456761D01*
X98416952Y-57504380D01*
X98607428Y-57504380D01*
X98702666Y-57456761D01*
X98750285Y-57409142D01*
X98797904Y-57313904D01*
X98797904Y-57123428D01*
X98750285Y-57028190D01*
X98702666Y-56980571D01*
X98607428Y-56932952D01*
%TO.C,C19*%
X75062142Y-63126857D02*
X75109761Y-63174476D01*
X75157380Y-63317333D01*
X75157380Y-63412571D01*
X75109761Y-63555428D01*
X75014523Y-63650666D01*
X74919285Y-63698285D01*
X74728809Y-63745904D01*
X74585952Y-63745904D01*
X74395476Y-63698285D01*
X74300238Y-63650666D01*
X74205000Y-63555428D01*
X74157380Y-63412571D01*
X74157380Y-63317333D01*
X74205000Y-63174476D01*
X74252619Y-63126857D01*
X75157380Y-62174476D02*
X75157380Y-62745904D01*
X75157380Y-62460190D02*
X74157380Y-62460190D01*
X74300238Y-62555428D01*
X74395476Y-62650666D01*
X74443095Y-62745904D01*
X75157380Y-61698285D02*
X75157380Y-61507809D01*
X75109761Y-61412571D01*
X75062142Y-61364952D01*
X74919285Y-61269714D01*
X74728809Y-61222095D01*
X74347857Y-61222095D01*
X74252619Y-61269714D01*
X74205000Y-61317333D01*
X74157380Y-61412571D01*
X74157380Y-61603047D01*
X74205000Y-61698285D01*
X74252619Y-61745904D01*
X74347857Y-61793523D01*
X74585952Y-61793523D01*
X74681190Y-61745904D01*
X74728809Y-61698285D01*
X74776428Y-61603047D01*
X74776428Y-61412571D01*
X74728809Y-61317333D01*
X74681190Y-61269714D01*
X74585952Y-61222095D01*
%TO.C,C21*%
X85955142Y-82684857D02*
X86002761Y-82732476D01*
X86050380Y-82875333D01*
X86050380Y-82970571D01*
X86002761Y-83113428D01*
X85907523Y-83208666D01*
X85812285Y-83256285D01*
X85621809Y-83303904D01*
X85478952Y-83303904D01*
X85288476Y-83256285D01*
X85193238Y-83208666D01*
X85098000Y-83113428D01*
X85050380Y-82970571D01*
X85050380Y-82875333D01*
X85098000Y-82732476D01*
X85145619Y-82684857D01*
X85145619Y-82303904D02*
X85098000Y-82256285D01*
X85050380Y-82161047D01*
X85050380Y-81922952D01*
X85098000Y-81827714D01*
X85145619Y-81780095D01*
X85240857Y-81732476D01*
X85336095Y-81732476D01*
X85478952Y-81780095D01*
X86050380Y-82351523D01*
X86050380Y-81732476D01*
X86050380Y-80780095D02*
X86050380Y-81351523D01*
X86050380Y-81065809D02*
X85050380Y-81065809D01*
X85193238Y-81161047D01*
X85288476Y-81256285D01*
X85336095Y-81351523D01*
%TO.C,C22*%
X74607142Y-78941142D02*
X74559523Y-78988761D01*
X74416666Y-79036380D01*
X74321428Y-79036380D01*
X74178571Y-78988761D01*
X74083333Y-78893523D01*
X74035714Y-78798285D01*
X73988095Y-78607809D01*
X73988095Y-78464952D01*
X74035714Y-78274476D01*
X74083333Y-78179238D01*
X74178571Y-78084000D01*
X74321428Y-78036380D01*
X74416666Y-78036380D01*
X74559523Y-78084000D01*
X74607142Y-78131619D01*
X74988095Y-78131619D02*
X75035714Y-78084000D01*
X75130952Y-78036380D01*
X75369047Y-78036380D01*
X75464285Y-78084000D01*
X75511904Y-78131619D01*
X75559523Y-78226857D01*
X75559523Y-78322095D01*
X75511904Y-78464952D01*
X74940476Y-79036380D01*
X75559523Y-79036380D01*
X75940476Y-78131619D02*
X75988095Y-78084000D01*
X76083333Y-78036380D01*
X76321428Y-78036380D01*
X76416666Y-78084000D01*
X76464285Y-78131619D01*
X76511904Y-78226857D01*
X76511904Y-78322095D01*
X76464285Y-78464952D01*
X75892857Y-79036380D01*
X76511904Y-79036380D01*
%TO.C,C23*%
X68175142Y-82811857D02*
X68222761Y-82859476D01*
X68270380Y-83002333D01*
X68270380Y-83097571D01*
X68222761Y-83240428D01*
X68127523Y-83335666D01*
X68032285Y-83383285D01*
X67841809Y-83430904D01*
X67698952Y-83430904D01*
X67508476Y-83383285D01*
X67413238Y-83335666D01*
X67318000Y-83240428D01*
X67270380Y-83097571D01*
X67270380Y-83002333D01*
X67318000Y-82859476D01*
X67365619Y-82811857D01*
X67365619Y-82430904D02*
X67318000Y-82383285D01*
X67270380Y-82288047D01*
X67270380Y-82049952D01*
X67318000Y-81954714D01*
X67365619Y-81907095D01*
X67460857Y-81859476D01*
X67556095Y-81859476D01*
X67698952Y-81907095D01*
X68270380Y-82478523D01*
X68270380Y-81859476D01*
X67270380Y-81526142D02*
X67270380Y-80907095D01*
X67651333Y-81240428D01*
X67651333Y-81097571D01*
X67698952Y-81002333D01*
X67746571Y-80954714D01*
X67841809Y-80907095D01*
X68079904Y-80907095D01*
X68175142Y-80954714D01*
X68222761Y-81002333D01*
X68270380Y-81097571D01*
X68270380Y-81383285D01*
X68222761Y-81478523D01*
X68175142Y-81526142D01*
%TO.C,C24*%
X60825142Y-78941142D02*
X60777523Y-78988761D01*
X60634666Y-79036380D01*
X60539428Y-79036380D01*
X60396571Y-78988761D01*
X60301333Y-78893523D01*
X60253714Y-78798285D01*
X60206095Y-78607809D01*
X60206095Y-78464952D01*
X60253714Y-78274476D01*
X60301333Y-78179238D01*
X60396571Y-78084000D01*
X60539428Y-78036380D01*
X60634666Y-78036380D01*
X60777523Y-78084000D01*
X60825142Y-78131619D01*
X61206095Y-78131619D02*
X61253714Y-78084000D01*
X61348952Y-78036380D01*
X61587047Y-78036380D01*
X61682285Y-78084000D01*
X61729904Y-78131619D01*
X61777523Y-78226857D01*
X61777523Y-78322095D01*
X61729904Y-78464952D01*
X61158476Y-79036380D01*
X61777523Y-79036380D01*
X62634666Y-78369714D02*
X62634666Y-79036380D01*
X62396571Y-77988761D02*
X62158476Y-78703047D01*
X62777523Y-78703047D01*
%TO.C,C25*%
X83415142Y-72905857D02*
X83462761Y-72953476D01*
X83510380Y-73096333D01*
X83510380Y-73191571D01*
X83462761Y-73334428D01*
X83367523Y-73429666D01*
X83272285Y-73477285D01*
X83081809Y-73524904D01*
X82938952Y-73524904D01*
X82748476Y-73477285D01*
X82653238Y-73429666D01*
X82558000Y-73334428D01*
X82510380Y-73191571D01*
X82510380Y-73096333D01*
X82558000Y-72953476D01*
X82605619Y-72905857D01*
X82605619Y-72524904D02*
X82558000Y-72477285D01*
X82510380Y-72382047D01*
X82510380Y-72143952D01*
X82558000Y-72048714D01*
X82605619Y-72001095D01*
X82700857Y-71953476D01*
X82796095Y-71953476D01*
X82938952Y-72001095D01*
X83510380Y-72572523D01*
X83510380Y-71953476D01*
X82510380Y-71048714D02*
X82510380Y-71524904D01*
X82986571Y-71572523D01*
X82938952Y-71524904D01*
X82891333Y-71429666D01*
X82891333Y-71191571D01*
X82938952Y-71096333D01*
X82986571Y-71048714D01*
X83081809Y-71001095D01*
X83319904Y-71001095D01*
X83415142Y-71048714D01*
X83462761Y-71096333D01*
X83510380Y-71191571D01*
X83510380Y-71429666D01*
X83462761Y-71524904D01*
X83415142Y-71572523D01*
%TO.C,C26*%
X92178142Y-72778857D02*
X92225761Y-72826476D01*
X92273380Y-72969333D01*
X92273380Y-73064571D01*
X92225761Y-73207428D01*
X92130523Y-73302666D01*
X92035285Y-73350285D01*
X91844809Y-73397904D01*
X91701952Y-73397904D01*
X91511476Y-73350285D01*
X91416238Y-73302666D01*
X91321000Y-73207428D01*
X91273380Y-73064571D01*
X91273380Y-72969333D01*
X91321000Y-72826476D01*
X91368619Y-72778857D01*
X91368619Y-72397904D02*
X91321000Y-72350285D01*
X91273380Y-72255047D01*
X91273380Y-72016952D01*
X91321000Y-71921714D01*
X91368619Y-71874095D01*
X91463857Y-71826476D01*
X91559095Y-71826476D01*
X91701952Y-71874095D01*
X92273380Y-72445523D01*
X92273380Y-71826476D01*
X91273380Y-70969333D02*
X91273380Y-71159809D01*
X91321000Y-71255047D01*
X91368619Y-71302666D01*
X91511476Y-71397904D01*
X91701952Y-71445523D01*
X92082904Y-71445523D01*
X92178142Y-71397904D01*
X92225761Y-71350285D01*
X92273380Y-71255047D01*
X92273380Y-71064571D01*
X92225761Y-70969333D01*
X92178142Y-70921714D01*
X92082904Y-70874095D01*
X91844809Y-70874095D01*
X91749571Y-70921714D01*
X91701952Y-70969333D01*
X91654333Y-71064571D01*
X91654333Y-71255047D01*
X91701952Y-71350285D01*
X91749571Y-71397904D01*
X91844809Y-71445523D01*
%TO.C,D1*%
X114561904Y-43084380D02*
X114561904Y-42084380D01*
X114800000Y-42084380D01*
X114942857Y-42132000D01*
X115038095Y-42227238D01*
X115085714Y-42322476D01*
X115133333Y-42512952D01*
X115133333Y-42655809D01*
X115085714Y-42846285D01*
X115038095Y-42941523D01*
X114942857Y-43036761D01*
X114800000Y-43084380D01*
X114561904Y-43084380D01*
X116085714Y-43084380D02*
X115514285Y-43084380D01*
X115800000Y-43084380D02*
X115800000Y-42084380D01*
X115704761Y-42227238D01*
X115609523Y-42322476D01*
X115514285Y-42370095D01*
%TO.C,F1*%
X79432571Y-52149333D02*
X79432571Y-52482666D01*
X79956380Y-52482666D02*
X78956380Y-52482666D01*
X78956380Y-52006476D01*
X79956380Y-51101714D02*
X79956380Y-51673142D01*
X79956380Y-51387428D02*
X78956380Y-51387428D01*
X79099238Y-51482666D01*
X79194476Y-51577904D01*
X79242095Y-51673142D01*
%TO.C,J1*%
X67374380Y-40309333D02*
X68088666Y-40309333D01*
X68231523Y-40356952D01*
X68326761Y-40452190D01*
X68374380Y-40595047D01*
X68374380Y-40690285D01*
X68374380Y-39309333D02*
X68374380Y-39880761D01*
X68374380Y-39595047D02*
X67374380Y-39595047D01*
X67517238Y-39690285D01*
X67612476Y-39785523D01*
X67660095Y-39880761D01*
%TO.C,L1*%
X107529333Y-62402380D02*
X107053142Y-62402380D01*
X107053142Y-61402380D01*
X108386476Y-62402380D02*
X107815047Y-62402380D01*
X108100761Y-62402380D02*
X108100761Y-61402380D01*
X108005523Y-61545238D01*
X107910285Y-61640476D01*
X107815047Y-61688095D01*
%TO.C,L2*%
X105582380Y-71286666D02*
X105582380Y-71762857D01*
X104582380Y-71762857D01*
X104677619Y-71000952D02*
X104630000Y-70953333D01*
X104582380Y-70858095D01*
X104582380Y-70620000D01*
X104630000Y-70524761D01*
X104677619Y-70477142D01*
X104772857Y-70429523D01*
X104868095Y-70429523D01*
X105010952Y-70477142D01*
X105582380Y-71048571D01*
X105582380Y-70429523D01*
%TO.C,L3*%
X103042380Y-34757166D02*
X103042380Y-35233357D01*
X102042380Y-35233357D01*
X102042380Y-34519071D02*
X102042380Y-33900023D01*
X102423333Y-34233357D01*
X102423333Y-34090500D01*
X102470952Y-33995261D01*
X102518571Y-33947642D01*
X102613809Y-33900023D01*
X102851904Y-33900023D01*
X102947142Y-33947642D01*
X102994761Y-33995261D01*
X103042380Y-34090500D01*
X103042380Y-34376214D01*
X102994761Y-34471452D01*
X102947142Y-34519071D01*
%TO.C,L4*%
X108682380Y-81446666D02*
X108682380Y-81922857D01*
X107682380Y-81922857D01*
X108015714Y-80684761D02*
X108682380Y-80684761D01*
X107634761Y-80922857D02*
X108349047Y-81160952D01*
X108349047Y-80541904D01*
%TO.C,L5*%
X102910833Y-42590380D02*
X102434642Y-42590380D01*
X102434642Y-41590380D01*
X103720357Y-41590380D02*
X103244166Y-41590380D01*
X103196547Y-42066571D01*
X103244166Y-42018952D01*
X103339404Y-41971333D01*
X103577500Y-41971333D01*
X103672738Y-42018952D01*
X103720357Y-42066571D01*
X103767976Y-42161809D01*
X103767976Y-42399904D01*
X103720357Y-42495142D01*
X103672738Y-42542761D01*
X103577500Y-42590380D01*
X103339404Y-42590380D01*
X103244166Y-42542761D01*
X103196547Y-42495142D01*
%TO.C,L6*%
X97322833Y-79166380D02*
X96846642Y-79166380D01*
X96846642Y-78166380D01*
X98084738Y-78166380D02*
X97894261Y-78166380D01*
X97799023Y-78214000D01*
X97751404Y-78261619D01*
X97656166Y-78404476D01*
X97608547Y-78594952D01*
X97608547Y-78975904D01*
X97656166Y-79071142D01*
X97703785Y-79118761D01*
X97799023Y-79166380D01*
X97989500Y-79166380D01*
X98084738Y-79118761D01*
X98132357Y-79071142D01*
X98179976Y-78975904D01*
X98179976Y-78737809D01*
X98132357Y-78642571D01*
X98084738Y-78594952D01*
X97989500Y-78547333D01*
X97799023Y-78547333D01*
X97703785Y-78594952D01*
X97656166Y-78642571D01*
X97608547Y-78737809D01*
%TO.C,L7*%
X101010380Y-54569166D02*
X101010380Y-55045357D01*
X100010380Y-55045357D01*
X100010380Y-54331071D02*
X100010380Y-53664404D01*
X101010380Y-54092976D01*
%TO.C,L8*%
X90394380Y-81446666D02*
X90394380Y-81922857D01*
X89394380Y-81922857D01*
X89822952Y-80970476D02*
X89775333Y-81065714D01*
X89727714Y-81113333D01*
X89632476Y-81160952D01*
X89584857Y-81160952D01*
X89489619Y-81113333D01*
X89442000Y-81065714D01*
X89394380Y-80970476D01*
X89394380Y-80780000D01*
X89442000Y-80684761D01*
X89489619Y-80637142D01*
X89584857Y-80589523D01*
X89632476Y-80589523D01*
X89727714Y-80637142D01*
X89775333Y-80684761D01*
X89822952Y-80780000D01*
X89822952Y-80970476D01*
X89870571Y-81065714D01*
X89918190Y-81113333D01*
X90013428Y-81160952D01*
X90203904Y-81160952D01*
X90299142Y-81113333D01*
X90346761Y-81065714D01*
X90394380Y-80970476D01*
X90394380Y-80780000D01*
X90346761Y-80684761D01*
X90299142Y-80637142D01*
X90203904Y-80589523D01*
X90013428Y-80589523D01*
X89918190Y-80637142D01*
X89870571Y-80684761D01*
X89822952Y-80780000D01*
%TO.C,L9*%
X79542833Y-79166380D02*
X79066642Y-79166380D01*
X79066642Y-78166380D01*
X79923785Y-79166380D02*
X80114261Y-79166380D01*
X80209500Y-79118761D01*
X80257119Y-79071142D01*
X80352357Y-78928285D01*
X80399976Y-78737809D01*
X80399976Y-78356857D01*
X80352357Y-78261619D01*
X80304738Y-78214000D01*
X80209500Y-78166380D01*
X80019023Y-78166380D01*
X79923785Y-78214000D01*
X79876166Y-78261619D01*
X79828547Y-78356857D01*
X79828547Y-78594952D01*
X79876166Y-78690190D01*
X79923785Y-78737809D01*
X80019023Y-78785428D01*
X80209500Y-78785428D01*
X80304738Y-78737809D01*
X80352357Y-78690190D01*
X80399976Y-78594952D01*
%TO.C,L10*%
X72715380Y-82557857D02*
X72715380Y-83034047D01*
X71715380Y-83034047D01*
X72715380Y-81700714D02*
X72715380Y-82272142D01*
X72715380Y-81986428D02*
X71715380Y-81986428D01*
X71858238Y-82081666D01*
X71953476Y-82176904D01*
X72001095Y-82272142D01*
X71715380Y-81081666D02*
X71715380Y-80986428D01*
X71763000Y-80891190D01*
X71810619Y-80843571D01*
X71905857Y-80795952D01*
X72096333Y-80748333D01*
X72334428Y-80748333D01*
X72524904Y-80795952D01*
X72620142Y-80843571D01*
X72667761Y-80891190D01*
X72715380Y-80986428D01*
X72715380Y-81081666D01*
X72667761Y-81176904D01*
X72620142Y-81224523D01*
X72524904Y-81272142D01*
X72334428Y-81319761D01*
X72096333Y-81319761D01*
X71905857Y-81272142D01*
X71810619Y-81224523D01*
X71763000Y-81176904D01*
X71715380Y-81081666D01*
%TO.C,L11*%
X87447380Y-72778857D02*
X87447380Y-73255047D01*
X86447380Y-73255047D01*
X87447380Y-71921714D02*
X87447380Y-72493142D01*
X87447380Y-72207428D02*
X86447380Y-72207428D01*
X86590238Y-72302666D01*
X86685476Y-72397904D01*
X86733095Y-72493142D01*
X87447380Y-70969333D02*
X87447380Y-71540761D01*
X87447380Y-71255047D02*
X86447380Y-71255047D01*
X86590238Y-71350285D01*
X86685476Y-71445523D01*
X86733095Y-71540761D01*
%TO.C,L12*%
X95474380Y-72224357D02*
X95474380Y-72700547D01*
X94474380Y-72700547D01*
X95474380Y-71367214D02*
X95474380Y-71938642D01*
X95474380Y-71652928D02*
X94474380Y-71652928D01*
X94617238Y-71748166D01*
X94712476Y-71843404D01*
X94760095Y-71938642D01*
X94569619Y-70986261D02*
X94522000Y-70938642D01*
X94474380Y-70843404D01*
X94474380Y-70605309D01*
X94522000Y-70510071D01*
X94569619Y-70462452D01*
X94664857Y-70414833D01*
X94760095Y-70414833D01*
X94902952Y-70462452D01*
X95474380Y-71033880D01*
X95474380Y-70414833D01*
%TO.C,MX1*%
X96465217Y-65296092D02*
X95463367Y-65296092D01*
X96178975Y-64962142D01*
X95463367Y-64628192D01*
X96465217Y-64628192D01*
X95463367Y-64246535D02*
X96465217Y-63578635D01*
X95463367Y-63578635D02*
X96465217Y-64246535D01*
X96465217Y-62672200D02*
X96465217Y-63244685D01*
X96465217Y-62958442D02*
X95463367Y-62958442D01*
X95606489Y-63053857D01*
X95701903Y-63149271D01*
X95749610Y-63244685D01*
%TO.C,R1*%
X89478380Y-45990166D02*
X89002190Y-46323500D01*
X89478380Y-46561595D02*
X88478380Y-46561595D01*
X88478380Y-46180642D01*
X88526000Y-46085404D01*
X88573619Y-46037785D01*
X88668857Y-45990166D01*
X88811714Y-45990166D01*
X88906952Y-46037785D01*
X88954571Y-46085404D01*
X89002190Y-46180642D01*
X89002190Y-46561595D01*
X89478380Y-45037785D02*
X89478380Y-45609214D01*
X89478380Y-45323500D02*
X88478380Y-45323500D01*
X88621238Y-45418738D01*
X88716476Y-45513976D01*
X88764095Y-45609214D01*
%TO.C,R2*%
X58737833Y-63697380D02*
X58404500Y-63221190D01*
X58166404Y-63697380D02*
X58166404Y-62697380D01*
X58547357Y-62697380D01*
X58642595Y-62745000D01*
X58690214Y-62792619D01*
X58737833Y-62887857D01*
X58737833Y-63030714D01*
X58690214Y-63125952D01*
X58642595Y-63173571D01*
X58547357Y-63221190D01*
X58166404Y-63221190D01*
X59118785Y-62792619D02*
X59166404Y-62745000D01*
X59261642Y-62697380D01*
X59499738Y-62697380D01*
X59594976Y-62745000D01*
X59642595Y-62792619D01*
X59690214Y-62887857D01*
X59690214Y-62983095D01*
X59642595Y-63125952D01*
X59071166Y-63697380D01*
X59690214Y-63697380D01*
%TO.C,R3*%
X70682380Y-71390166D02*
X70206190Y-71723500D01*
X70682380Y-71961595D02*
X69682380Y-71961595D01*
X69682380Y-71580642D01*
X69730000Y-71485404D01*
X69777619Y-71437785D01*
X69872857Y-71390166D01*
X70015714Y-71390166D01*
X70110952Y-71437785D01*
X70158571Y-71485404D01*
X70206190Y-71580642D01*
X70206190Y-71961595D01*
X69682380Y-71056833D02*
X69682380Y-70437785D01*
X70063333Y-70771119D01*
X70063333Y-70628261D01*
X70110952Y-70533023D01*
X70158571Y-70485404D01*
X70253809Y-70437785D01*
X70491904Y-70437785D01*
X70587142Y-70485404D01*
X70634761Y-70533023D01*
X70682380Y-70628261D01*
X70682380Y-70913976D01*
X70634761Y-71009214D01*
X70587142Y-71056833D01*
%TO.C,R4*%
X72881833Y-72714380D02*
X72548500Y-72238190D01*
X72310404Y-72714380D02*
X72310404Y-71714380D01*
X72691357Y-71714380D01*
X72786595Y-71762000D01*
X72834214Y-71809619D01*
X72881833Y-71904857D01*
X72881833Y-72047714D01*
X72834214Y-72142952D01*
X72786595Y-72190571D01*
X72691357Y-72238190D01*
X72310404Y-72238190D01*
X73738976Y-72047714D02*
X73738976Y-72714380D01*
X73500880Y-71666761D02*
X73262785Y-72381047D01*
X73881833Y-72381047D01*
%TO.C,R5*%
X79319380Y-72302666D02*
X78843190Y-72636000D01*
X79319380Y-72874095D02*
X78319380Y-72874095D01*
X78319380Y-72493142D01*
X78367000Y-72397904D01*
X78414619Y-72350285D01*
X78509857Y-72302666D01*
X78652714Y-72302666D01*
X78747952Y-72350285D01*
X78795571Y-72397904D01*
X78843190Y-72493142D01*
X78843190Y-72874095D01*
X78319380Y-71397904D02*
X78319380Y-71874095D01*
X78795571Y-71921714D01*
X78747952Y-71874095D01*
X78700333Y-71778857D01*
X78700333Y-71540761D01*
X78747952Y-71445523D01*
X78795571Y-71397904D01*
X78890809Y-71350285D01*
X79128904Y-71350285D01*
X79224142Y-71397904D01*
X79271761Y-71445523D01*
X79319380Y-71540761D01*
X79319380Y-71778857D01*
X79271761Y-71874095D01*
X79224142Y-71921714D01*
%TO.C,U1*%
X83693095Y-63947380D02*
X83693095Y-64756904D01*
X83740714Y-64852142D01*
X83788333Y-64899761D01*
X83883571Y-64947380D01*
X84074047Y-64947380D01*
X84169285Y-64899761D01*
X84216904Y-64852142D01*
X84264523Y-64756904D01*
X84264523Y-63947380D01*
X85264523Y-64947380D02*
X84693095Y-64947380D01*
X84978809Y-64947380D02*
X84978809Y-63947380D01*
X84883571Y-64090238D01*
X84788333Y-64185476D01*
X84693095Y-64233095D01*
%TO.C,U2*%
X55626095Y-47712380D02*
X55626095Y-48521904D01*
X55673714Y-48617142D01*
X55721333Y-48664761D01*
X55816571Y-48712380D01*
X56007047Y-48712380D01*
X56102285Y-48664761D01*
X56149904Y-48617142D01*
X56197523Y-48521904D01*
X56197523Y-47712380D01*
X56626095Y-47807619D02*
X56673714Y-47760000D01*
X56768952Y-47712380D01*
X57007047Y-47712380D01*
X57102285Y-47760000D01*
X57149904Y-47807619D01*
X57197523Y-47902857D01*
X57197523Y-47998095D01*
X57149904Y-48140952D01*
X56578476Y-48712380D01*
X57197523Y-48712380D01*
%TO.C,U3*%
X52451095Y-61174380D02*
X52451095Y-61983904D01*
X52498714Y-62079142D01*
X52546333Y-62126761D01*
X52641571Y-62174380D01*
X52832047Y-62174380D01*
X52927285Y-62126761D01*
X52974904Y-62079142D01*
X53022523Y-61983904D01*
X53022523Y-61174380D01*
X53403476Y-61174380D02*
X54022523Y-61174380D01*
X53689190Y-61555333D01*
X53832047Y-61555333D01*
X53927285Y-61602952D01*
X53974904Y-61650571D01*
X54022523Y-61745809D01*
X54022523Y-61983904D01*
X53974904Y-62079142D01*
X53927285Y-62126761D01*
X53832047Y-62174380D01*
X53546333Y-62174380D01*
X53451095Y-62126761D01*
X53403476Y-62079142D01*
%TO.C,X1*%
X65103476Y-63047380D02*
X65770142Y-64047380D01*
X65770142Y-63047380D02*
X65103476Y-64047380D01*
X66674904Y-64047380D02*
X66103476Y-64047380D01*
X66389190Y-64047380D02*
X66389190Y-63047380D01*
X66293952Y-63190238D01*
X66198714Y-63285476D01*
X66103476Y-63333095D01*
%TD*%
M02*
